<svg width="383" height="80" viewBox="0 0 383 80" fill="none" xmlns="http://www.w3.org/2000/svg">
<g clip-path="url(#clip0_107_2)">
<path d="M93.8665 68H85.0142L104.905 12.7273H114.54L134.43 68H125.578L109.952 22.767H109.52L93.8665 68ZM95.3509 46.3551H124.067V53.3722H95.3509V46.3551ZM151.675 68.8097C148.328 68.8097 145.342 67.955 142.715 66.2457C140.106 64.5185 138.055 62.0625 136.561 58.8778C135.086 55.6752 134.348 51.8338 134.348 47.3537C134.348 42.8736 135.095 39.0412 136.588 35.8565C138.1 32.6719 140.169 30.2339 142.796 28.5426C145.423 26.8513 148.4 26.0057 151.729 26.0057C154.302 26.0057 156.371 26.4375 157.936 27.3011C159.52 28.1468 160.743 29.1364 161.607 30.2699C162.489 31.4034 163.172 32.402 163.658 33.2656H164.144V12.7273H172.213V68H164.333V61.5497H163.658C163.172 62.4313 162.471 63.4389 161.553 64.5724C160.653 65.706 159.412 66.6955 157.828 67.5412C156.245 68.3868 154.194 68.8097 151.675 68.8097ZM153.456 61.9276C155.777 61.9276 157.739 61.3158 159.34 60.0923C160.959 58.8509 162.183 57.1326 163.01 54.9375C163.856 52.7424 164.279 50.1875 164.279 47.2727C164.279 44.3939 163.865 41.875 163.037 39.7159C162.21 37.5568 160.995 35.8745 159.394 34.669C157.792 33.4635 155.813 32.8608 153.456 32.8608C151.027 32.8608 149.003 33.4905 147.384 34.75C145.765 36.0095 144.541 37.7277 143.713 39.9048C142.904 42.0819 142.499 44.5379 142.499 47.2727C142.499 50.0436 142.913 52.5355 143.74 54.7486C144.568 56.9616 145.792 58.7159 147.411 60.0114C149.048 61.2888 151.063 61.9276 153.456 61.9276ZM178.791 68V26.5455H186.537V33.2926H187.049C187.913 31.0076 189.325 29.2263 191.287 27.9489C193.248 26.6534 195.596 26.0057 198.331 26.0057C201.101 26.0057 203.422 26.6534 205.294 27.9489C207.183 29.2443 208.577 31.0256 209.477 33.2926H209.909C210.898 31.0795 212.473 29.3163 214.632 28.0028C216.791 26.6714 219.364 26.0057 222.35 26.0057C226.111 26.0057 229.179 27.1842 231.554 29.5412C233.947 31.8982 235.143 35.4517 235.143 40.2017V68H227.073V40.9574C227.073 38.1506 226.309 36.1174 224.779 34.858C223.25 33.5985 221.424 32.9688 219.301 32.9688C216.674 32.9688 214.632 33.7784 213.174 35.3977C211.717 36.9991 210.988 39.0592 210.988 41.5781V68H202.946V40.4446C202.946 38.1955 202.244 36.3873 200.841 35.0199C199.437 33.6525 197.611 32.9688 195.362 32.9688C193.832 32.9688 192.42 33.3736 191.125 34.1832C189.847 34.9749 188.813 36.0814 188.021 37.5028C187.247 38.9242 186.86 40.5705 186.86 42.4418V68H178.791ZM241.019 68V26.5455H249.088V68H241.019ZM245.094 20.1491C243.691 20.1491 242.485 19.6813 241.478 18.7457C240.488 17.7921 239.993 16.6586 239.993 15.3452C239.993 14.0137 240.488 12.8802 241.478 11.9446C242.485 10.991 243.691 10.5142 245.094 10.5142C246.497 10.5142 247.694 10.991 248.684 11.9446C249.691 12.8802 250.195 14.0137 250.195 15.3452C250.195 16.6586 249.691 17.7921 248.684 18.7457C247.694 19.6813 246.497 20.1491 245.094 20.1491ZM263.074 43.3864V68H255.005V26.5455H262.75V33.2926H263.263C264.217 31.0975 265.71 29.3343 267.743 28.0028C269.794 26.6714 272.376 26.0057 275.489 26.0057C278.314 26.0057 280.788 26.5994 282.911 27.7869C285.034 28.9564 286.68 30.7017 287.85 33.0227C289.019 35.3437 289.604 38.2135 289.604 41.6321V68H281.534V42.6037C281.534 39.599 280.752 37.2509 279.186 35.5597C277.621 33.8504 275.471 32.9957 272.736 32.9957C270.865 32.9957 269.201 33.4006 267.743 34.2102C266.304 35.0199 265.161 36.2074 264.316 37.7727C263.488 39.3201 263.074 41.1913 263.074 43.3864ZM346.851 12.7273H355.218V49.081C355.218 52.9493 354.309 56.3769 352.492 59.3636C350.675 62.3324 348.12 64.6714 344.827 66.3807C341.535 68.072 337.675 68.9176 333.249 68.9176C328.841 68.9176 324.991 68.072 321.698 66.3807C318.405 64.6714 315.851 62.3324 314.033 59.3636C312.216 56.3769 311.307 52.9493 311.307 49.081V12.7273H319.647V48.4062C319.647 50.9072 320.196 53.1293 321.293 55.0724C322.409 57.0156 323.983 58.545 326.016 59.6605C328.049 60.758 330.46 61.3068 333.249 61.3068C336.056 61.3068 338.476 60.758 340.509 59.6605C342.56 58.545 344.126 57.0156 345.205 55.0724C346.303 53.1293 346.851 50.9072 346.851 48.4062V12.7273ZM370.742 12.7273V68H362.403V12.7273H370.742Z" fill="#101828"/>
<g clip-path="url(#clip1_107_2)">
<g filter="url(#filter0_d_107_2)">
<path d="M18.0625 12.1875H68.0625V22.1875H18.0625V12.1875Z" fill="url(#paint0_linear_107_2)"/>
<path d="M18.125 28.1562H68.125V38.1562H18.125V28.1562Z" fill="url(#paint1_linear_107_2)"/>
<path d="M18.125 44.1438H68.125V54.1438H18.125V44.1438Z" fill="url(#paint2_linear_107_2)"/>
<path d="M18.125 60.1128H68.125V70.1128H18.125V60.1128Z" fill="url(#paint3_linear_107_2)"/>
<path d="M18.0625 11.1875C17.5102 11.1875 17.0625 11.6352 17.0625 12.1875V22.1875C17.0625 22.7398 17.5102 23.1875 18.0625 23.1875H68.0625C68.6148 23.1875 69.0625 22.7398 69.0625 22.1875V12.1875C69.0625 11.6352 68.6148 11.1875 68.0625 11.1875H18.0625ZM18.125 27.1562C17.5727 27.1562 17.125 27.604 17.125 28.1562V38.1562C17.125 38.7085 17.5727 39.1562 18.125 39.1562H68.125C68.6773 39.1562 69.125 38.7085 69.125 38.1562V28.1562C69.125 27.604 68.6773 27.1562 68.125 27.1562H18.125ZM18.125 43.1438C17.5727 43.1438 17.125 43.5915 17.125 44.1438V54.1438C17.125 54.6961 17.5727 55.1438 18.125 55.1438H68.125C68.6773 55.1438 69.125 54.6961 69.125 54.1438V44.1438C69.125 43.5915 68.6773 43.1438 68.125 43.1438H18.125ZM18.125 59.1128C17.5727 59.1128 17.125 59.5605 17.125 60.1128V70.1128C17.125 70.6651 17.5727 71.1128 18.125 71.1128H68.125C68.6773 71.1128 69.125 70.6651 69.125 70.1128V60.1128C69.125 59.5605 68.6773 59.1128 68.125 59.1128H18.125Z" stroke="black" stroke-width="2" stroke-linejoin="round"/>
</g>
<g filter="url(#filter1_d_107_2)">
<mask id="path-4-outside-1_107_2" maskUnits="userSpaceOnUse" x="24.9024" y="5.99939" width="35" height="71" fill="black">
<rect fill="white" x="24.9024" y="5.99939" width="35" height="71"/>
<path fill-rule="evenodd" clip-rule="evenodd" d="M55.5822 9.34431C55.8221 8.69159 55.339 7.99939 54.6436 7.99939H33.692C33.1934 7.99939 32.771 8.36661 32.7017 8.86032L27.9123 42.9636C27.8278 43.5653 28.295 44.1027 28.9026 44.1027H33.247C33.8887 44.1027 34.3644 44.6986 34.2221 45.3244L27.935 72.9758C27.6927 74.0413 29.0906 74.6677 29.7246 73.7777L57.0047 35.4812C57.4752 34.8206 57.0051 33.9041 56.1941 33.901L47.9989 33.8692C47.3051 33.8665 46.8249 33.1754 47.0641 32.5243L55.5822 9.34431Z"/>
</mask>
<path fill-rule="evenodd" clip-rule="evenodd" d="M55.5822 9.34431C55.8221 8.69159 55.339 7.99939 54.6436 7.99939H33.692C33.1934 7.99939 32.771 8.36661 32.7017 8.86032L27.9123 42.9636C27.8278 43.5653 28.295 44.1027 28.9026 44.1027H33.247C33.8887 44.1027 34.3644 44.6986 34.2221 45.3244L27.935 72.9758C27.6927 74.0413 29.0906 74.6677 29.7246 73.7777L57.0047 35.4812C57.4752 34.8206 57.0051 33.9041 56.1941 33.901L47.9989 33.8692C47.3051 33.8665 46.8249 33.1754 47.0641 32.5243L55.5822 9.34431Z" fill="url(#paint4_linear_107_2)"/>
<path d="M47.9989 33.8692L47.9911 35.8692L47.9989 33.8692ZM47.0641 32.5243L45.1869 31.8344L47.0641 32.5243ZM56.1941 33.901L56.1863 35.901L56.1941 33.901ZM27.935 72.9758L25.9847 72.5323L27.935 72.9758ZM29.7246 73.7777L31.3535 74.9381L29.7246 73.7777ZM34.2221 45.3244L32.2719 44.8809L34.2221 45.3244ZM55.5822 9.34431L53.7049 8.65447L55.5822 9.34431ZM32.7017 8.86032L30.7211 8.58217L32.7017 8.86032ZM33.692 9.99939H54.6436V5.99939H33.692V9.99939ZM29.8929 43.2417L34.6823 9.13847L30.7211 8.58217L25.9317 42.6854L29.8929 43.2417ZM33.247 42.1027H28.9026V46.1027H33.247V42.1027ZM29.8852 73.4192L36.1723 45.7678L32.2719 44.8809L25.9847 72.5323L29.8852 73.4192ZM55.3757 34.3208L28.0956 72.6173L31.3535 74.9381L58.6337 36.6415L55.3757 34.3208ZM47.9911 35.8692L56.1863 35.901L56.2019 31.901L48.0067 31.8692L47.9911 35.8692ZM53.7049 8.65447L45.1869 31.8344L48.9414 33.2141L57.4595 10.0342L53.7049 8.65447ZM48.0067 31.8692C48.7004 31.8719 49.1807 32.5629 48.9414 33.2141L45.1869 31.8344C44.469 33.7879 45.9099 35.8611 47.9911 35.8692L48.0067 31.8692ZM58.6337 36.6415C60.0453 34.6599 58.6349 31.9104 56.2019 31.901L56.1863 35.901C55.3753 35.8978 54.9052 34.9813 55.3757 34.3208L58.6337 36.6415ZM25.9847 72.5323C25.2579 75.7289 29.4515 77.6081 31.3535 74.9381L28.0956 72.6173C28.7296 71.7273 30.1275 72.3537 29.8852 73.4192L25.9847 72.5323ZM33.247 46.1027C32.6052 46.1027 32.1296 45.5067 32.2719 44.8809L36.1723 45.7678C36.5992 43.8904 35.1723 42.1027 33.247 42.1027V46.1027ZM25.9317 42.6854C25.6782 44.4905 27.0798 46.1027 28.9026 46.1027V42.1027C29.5102 42.1027 29.9774 42.64 29.8929 43.2417L25.9317 42.6854ZM54.6436 9.99939C53.9482 9.99939 53.4651 9.30719 53.7049 8.65447L57.4595 10.0342C58.179 8.07599 56.7298 5.99939 54.6436 5.99939V9.99939ZM33.692 5.99939C32.1963 5.99939 30.9291 7.10106 30.7211 8.58217L34.6823 9.13847C34.6129 9.63216 34.1905 9.99939 33.692 9.99939V5.99939Z" fill="black" mask="url(#path-4-outside-1_107_2)"/>
</g>
</g>
</g>
<defs>
<filter id="filter0_d_107_2" x="10.0625" y="4.1875" width="66.0625" height="73.9253" filterUnits="userSpaceOnUse" color-interpolation-filters="sRGB">
<feFlood flood-opacity="0" result="BackgroundImageFix"/>
<feColorMatrix in="SourceAlpha" type="matrix" values="0 0 0 0 0 0 0 0 0 0 0 0 0 0 0 0 0 0 127 0" result="hardAlpha"/>
<feOffset/>
<feGaussianBlur stdDeviation="3"/>
<feComposite in2="hardAlpha" operator="out"/>
<feColorMatrix type="matrix" values="0 0 0 0 0 0 0 0 0 0 0 0 0 0 0 0 0 0 0.25 0"/>
<feBlend mode="normal" in2="BackgroundImageFix" result="effect1_dropShadow_107_2"/>
<feBlend mode="normal" in="SourceGraphic" in2="effect1_dropShadow_107_2" result="shape"/>
</filter>
<filter id="filter1_d_107_2" x="19.9011" y="-0.000610352" width="45.2944" height="82.212" filterUnits="userSpaceOnUse" color-interpolation-filters="sRGB">
<feFlood flood-opacity="0" result="BackgroundImageFix"/>
<feColorMatrix in="SourceAlpha" type="matrix" values="0 0 0 0 0 0 0 0 0 0 0 0 0 0 0 0 0 0 127 0" result="hardAlpha"/>
<feOffset/>
<feGaussianBlur stdDeviation="3"/>
<feComposite in2="hardAlpha" operator="out"/>
<feColorMatrix type="matrix" values="0 0 0 0 0 0 0 0 0 0 0 0 0 0 0 0 0 0 0.25 0"/>
<feBlend mode="normal" in2="BackgroundImageFix" result="effect1_dropShadow_107_2"/>
<feBlend mode="normal" in="SourceGraphic" in2="effect1_dropShadow_107_2" result="shape"/>
</filter>
<linearGradient id="paint0_linear_107_2" x1="19.5" y1="35.375" x2="68.125" y2="36" gradientUnits="userSpaceOnUse">
<stop stop-color="#C4C4C4"/>
<stop offset="1" stop-color="#D8D8D8"/>
</linearGradient>
<linearGradient id="paint1_linear_107_2" x1="19.5" y1="35.375" x2="68.125" y2="36" gradientUnits="userSpaceOnUse">
<stop stop-color="#C4C4C4"/>
<stop offset="1" stop-color="#D8D8D8"/>
</linearGradient>
<linearGradient id="paint2_linear_107_2" x1="19.5" y1="35.375" x2="68.125" y2="36" gradientUnits="userSpaceOnUse">
<stop stop-color="#C4C4C4"/>
<stop offset="1" stop-color="#D8D8D8"/>
</linearGradient>
<linearGradient id="paint3_linear_107_2" x1="19.5" y1="35.375" x2="68.125" y2="36" gradientUnits="userSpaceOnUse">
<stop stop-color="#C4C4C4"/>
<stop offset="1" stop-color="#D8D8D8"/>
</linearGradient>
<linearGradient id="paint4_linear_107_2" x1="42.5472" y1="7.99939" x2="42.5472" y2="74.2021" gradientUnits="userSpaceOnUse">
<stop stop-color="#FFED00"/>
<stop offset="1" stop-color="#FFC800"/>
</linearGradient>
<clipPath id="clip0_107_2">
<rect width="383" height="80" fill="white"/>
</clipPath>
<clipPath id="clip1_107_2">
<rect width="80" height="80" fill="white" transform="translate(3.125)"/>
</clipPath>
</defs>
</svg>
