    <svg width="523" height="85" viewBox="0 0 523 85" fill="none" xmlns="http://www.w3.org/2000/svg">
    <g clip-path="url(#clip0_104_2)">
    <path d="M87.989 12.888H113.753C119.934 12.888 124.722 14.3827 128.117 17.372C131.512 20.3107 133.209 24.3133 133.209 29.38C133.209 34.396 131.486 38.3987 128.041 41.388C124.596 44.3773 119.833 45.872 113.753 45.872H102.277V67H87.989V12.888ZM111.853 35.232C117.224 35.232 119.909 33.332 119.909 29.532C119.909 27.6067 119.25 26.1627 117.933 25.2C116.666 24.1867 114.64 23.68 111.853 23.68H102.277V35.232H111.853ZM152.14 67.608C147.833 67.608 144.084 66.7973 140.892 65.176C137.7 63.5547 135.242 61.224 133.52 58.184C131.797 55.144 130.936 51.572 130.936 47.468C130.936 43.364 131.797 39.792 133.52 36.752C135.242 33.712 137.7 31.3813 140.892 29.76C144.084 28.1387 147.833 27.328 152.14 27.328C156.396 27.328 160.094 28.164 163.236 29.836C166.428 31.4573 168.885 33.788 170.608 36.828C172.33 39.8173 173.192 43.364 173.192 47.468C173.192 51.572 172.33 55.144 170.608 58.184C168.885 61.1733 166.428 63.504 163.236 65.176C160.094 66.7973 156.396 67.608 152.14 67.608ZM152.14 57.348C157.105 57.348 159.588 54.0547 159.588 47.468C159.588 44.124 158.954 41.6667 157.688 40.096C156.472 38.4747 154.622 37.664 152.14 37.664C149.606 37.664 147.706 38.4747 146.44 40.096C145.173 41.6667 144.54 44.124 144.54 47.468C144.54 50.8627 145.173 53.3707 146.44 54.992C147.706 56.5627 149.606 57.348 152.14 57.348ZM238.964 28.392L222.852 67H211.528L203.776 47.848L196.48 67H185.08L168.968 28.392H182.952L191.54 50.66L199.9 28.392H208.716L217.304 51.116L225.74 28.392H238.964ZM272.225 49.064H247.981C248.234 52.0533 249.096 54.2067 250.565 55.524C252.034 56.8413 254.188 57.5 257.025 57.5C258.95 57.5 260.876 57.196 262.801 56.588C264.726 55.9293 266.474 55.0427 268.045 53.928L271.541 63.048C269.616 64.4667 267.285 65.5813 264.549 66.392C261.813 67.2027 259.077 67.608 256.341 67.608C251.933 67.608 248.108 66.7973 244.865 65.176C241.622 63.5547 239.14 61.2493 237.417 58.26C235.694 55.22 234.833 51.648 234.833 47.544C234.833 43.6427 235.644 40.172 237.265 37.132C238.937 34.0413 241.217 31.6347 244.105 29.912C247.044 28.1893 250.388 27.328 254.137 27.328C257.785 27.328 260.977 28.1387 263.713 29.76C266.449 31.3813 268.552 33.712 270.021 36.752C271.49 39.7413 272.225 43.2373 272.225 47.24V49.064ZM254.517 36.752C251.122 36.752 248.994 38.728 248.133 42.68H260.445C259.938 38.728 257.962 36.752 254.517 36.752ZM298.045 27.48C299.919 27.48 301.363 27.7587 302.377 28.316V40.856C300.198 39.8427 298.095 39.336 296.069 39.336C290.293 39.336 287.405 42.0973 287.405 47.62V67H273.649V39.488C273.649 35.3333 273.446 31.6347 273.041 28.392H285.961L286.797 34.852C287.709 32.4707 289.178 30.6467 291.205 29.38C293.231 28.1133 295.511 27.48 298.045 27.48ZM338.836 67.684C334.783 67.684 330.78 67.152 326.828 66.088C322.876 65.024 319.659 63.58 317.176 61.756L321.66 51.648C324.295 53.32 327.081 54.612 330.02 55.524C333.009 56.3853 335.999 56.816 338.988 56.816C342.028 56.816 344.359 56.4107 345.98 55.6C347.601 54.7387 348.412 53.548 348.412 52.028C348.412 50.66 347.677 49.5453 346.208 48.684C344.739 47.772 341.977 46.8853 337.924 46.024C332.807 45.0107 328.829 43.7693 325.992 42.3C323.155 40.78 321.153 39.0067 319.988 36.98C318.873 34.9533 318.316 32.496 318.316 29.608C318.316 26.3147 319.253 23.3507 321.128 20.716C323.003 18.0307 325.637 15.9533 329.032 14.484C332.427 12.964 336.303 12.204 340.66 12.204C344.561 12.204 348.336 12.7613 351.984 13.876C355.683 14.94 358.571 16.3587 360.648 18.132L356.24 28.24C353.859 26.568 351.351 25.3013 348.716 24.44C346.081 23.528 343.447 23.072 340.812 23.072C338.228 23.072 336.151 23.5787 334.58 24.592C333.009 25.5547 332.224 26.872 332.224 28.544C332.224 29.456 332.503 30.216 333.06 30.824C333.617 31.432 334.656 32.04 336.176 32.648C337.696 33.2053 339.976 33.8133 343.016 34.472C347.931 35.536 351.781 36.828 354.568 38.348C357.405 39.8173 359.407 41.5653 360.572 43.592C361.737 45.568 362.32 47.9493 362.32 50.736C362.32 56.0053 360.268 60.16 356.164 63.2C352.06 66.1893 346.284 67.684 338.836 67.684ZM386.5 56.512C387.412 56.512 388.628 56.36 390.148 56.056V66.468C388.273 67.228 385.892 67.608 383.004 67.608C377.785 67.608 373.808 66.1387 371.072 63.2C368.386 60.2613 367.044 56.1827 367.044 50.964V38.5H359.824V28.392H367.044V19.652L380.8 15.244V28.392H390.072V38.5H380.8V50.964C380.8 52.788 381.332 54.1813 382.396 55.144C383.51 56.056 384.878 56.512 386.5 56.512ZM431.037 28.392V67H417.509V61.756C416.394 63.58 414.773 65.024 412.645 66.088C410.517 67.1013 408.186 67.608 405.653 67.608C402.36 67.608 399.421 66.7973 396.837 65.176C394.253 63.5547 392.226 61.2493 390.757 58.26C389.338 55.22 388.629 51.724 388.629 47.772C388.629 43.7693 389.364 40.2227 390.833 37.132C392.302 34.0413 394.329 31.6347 396.913 29.912C399.497 28.1893 402.41 27.328 405.653 27.328C408.186 27.328 410.492 27.8853 412.569 29C414.697 30.064 416.344 31.508 417.509 33.332V28.392H431.037ZM409.909 57.348C412.341 57.348 414.216 56.512 415.533 54.84C416.85 53.168 417.509 50.7613 417.509 47.62C417.509 44.428 416.85 41.996 415.533 40.324C414.216 38.6013 412.341 37.74 409.909 37.74C407.528 37.74 405.653 38.6267 404.285 40.4C402.917 42.1227 402.233 44.58 402.233 47.772C402.233 50.8627 402.892 53.244 404.209 54.916C405.526 56.5373 407.426 57.348 409.909 57.348ZM453.425 67.608C446.889 67.608 441.772 65.8347 438.073 62.288C434.374 58.7413 432.525 53.9027 432.525 47.772C432.525 43.7187 433.412 40.1467 435.185 37.056C437.009 33.9653 439.542 31.584 442.785 29.912C446.028 28.1893 449.777 27.328 454.033 27.328C456.87 27.328 459.657 27.7587 462.393 28.62C465.129 29.4307 467.308 30.5453 468.929 31.964L465.433 41.464C464.065 40.3493 462.469 39.4627 460.645 38.804C458.821 38.1453 457.073 37.816 455.401 37.816C452.564 37.816 450.385 38.6267 448.865 40.248C447.345 41.8693 446.585 44.276 446.585 47.468C446.585 50.7107 447.345 53.168 448.865 54.84C450.385 56.4613 452.589 57.272 455.477 57.272C457.149 57.272 458.872 56.9427 460.645 56.284C462.469 55.6253 464.065 54.7387 465.433 53.624L468.929 62.972C467.257 64.4413 465.028 65.5813 462.241 66.392C459.505 67.2027 456.566 67.608 453.425 67.608ZM495.35 67L482.202 50.356V67H468.446V11.064H482.202V44.504L495.122 28.468H511.386L496.186 46.936L511.994 67H495.35Z" fill="#101828"/>
    <g clip-path="url(#clip1_104_2)">
    <g filter="url(#filter0_d_104_2)">
    <path d="M18.0625 12.1875H68.0625V22.1875H18.0625V12.1875Z" fill="url(#paint0_linear_104_2)"/>
    <path d="M18.125 28.1562H68.125V38.1562H18.125V28.1562Z" fill="url(#paint1_linear_104_2)"/>
    <path d="M18.125 44.1438H68.125V54.1438H18.125V44.1438Z" fill="url(#paint2_linear_104_2)"/>
    <path d="M18.125 60.1128H68.125V70.1128H18.125V60.1128Z" fill="url(#paint3_linear_104_2)"/>
    <path d="M18.0625 11.1875C17.5102 11.1875 17.0625 11.6352 17.0625 12.1875V22.1875C17.0625 22.7398 17.5102 23.1875 18.0625 23.1875H68.0625C68.6148 23.1875 69.0625 22.7398 69.0625 22.1875V12.1875C69.0625 11.6352 68.6148 11.1875 68.0625 11.1875H18.0625ZM18.125 27.1562C17.5727 27.1562 17.125 27.604 17.125 28.1562V38.1562C17.125 38.7085 17.5727 39.1562 18.125 39.1562H68.125C68.6773 39.1562 69.125 38.7085 69.125 38.1562V28.1562C69.125 27.604 68.6773 27.1562 68.125 27.1562H18.125ZM18.125 43.1438C17.5727 43.1438 17.125 43.5915 17.125 44.1438V54.1438C17.125 54.6961 17.5727 55.1438 18.125 55.1438H68.125C68.6773 55.1438 69.125 54.6961 69.125 54.1438V44.1438C69.125 43.5915 68.6773 43.1438 68.125 43.1438H18.125ZM18.125 59.1128C17.5727 59.1128 17.125 59.5605 17.125 60.1128V70.1128C17.125 70.6651 17.5727 71.1128 18.125 71.1128H68.125C68.6773 71.1128 69.125 70.6651 69.125 70.1128V60.1128C69.125 59.5605 68.6773 59.1128 68.125 59.1128H18.125Z" stroke="black" stroke-width="2" stroke-linejoin="round"/>
    </g>
    <g filter="url(#filter1_d_104_2)">
    <mask id="path-4-outside-1_104_2" maskUnits="userSpaceOnUse" x="24.9024" y="5.99939" width="35" height="71" fill="black">
    <rect fill="white" x="24.9024" y="5.99939" width="35" height="71"/>
    <path fill-rule="evenodd" clip-rule="evenodd" d="M55.5822 9.34431C55.8221 8.69159 55.339 7.99939 54.6436 7.99939H33.692C33.1934 7.99939 32.771 8.36661 32.7017 8.86032L27.9123 42.9636C27.8278 43.5653 28.295 44.1027 28.9026 44.1027H33.247C33.8887 44.1027 34.3644 44.6986 34.2221 45.3244L27.935 72.9758C27.6927 74.0413 29.0906 74.6677 29.7246 73.7777L57.0047 35.4812C57.4752 34.8206 57.0051 33.9041 56.1941 33.901L47.9989 33.8692C47.3051 33.8665 46.8249 33.1754 47.0641 32.5243L55.5822 9.34431Z"/>
    </mask>
    <path fill-rule="evenodd" clip-rule="evenodd" d="M55.5822 9.34431C55.8221 8.69159 55.339 7.99939 54.6436 7.99939H33.692C33.1934 7.99939 32.771 8.36661 32.7017 8.86032L27.9123 42.9636C27.8278 43.5653 28.295 44.1027 28.9026 44.1027H33.247C33.8887 44.1027 34.3644 44.6986 34.2221 45.3244L27.935 72.9758C27.6927 74.0413 29.0906 74.6677 29.7246 73.7777L57.0047 35.4812C57.4752 34.8206 57.0051 33.9041 56.1941 33.901L47.9989 33.8692C47.3051 33.8665 46.8249 33.1754 47.0641 32.5243L55.5822 9.34431Z" fill="url(#paint4_linear_104_2)"/>
    <path d="M47.9989 33.8692L47.9911 35.8692L47.9989 33.8692ZM47.0641 32.5243L45.1869 31.8344L47.0641 32.5243ZM56.1941 33.901L56.1863 35.901L56.1941 33.901ZM27.935 72.9758L25.9847 72.5323L27.935 72.9758ZM29.7246 73.7777L31.3535 74.938L29.7246 73.7777ZM34.2221 45.3244L32.2719 44.8809L34.2221 45.3244ZM55.5822 9.34431L53.7049 8.65447L55.5822 9.34431ZM32.7017 8.86032L30.7211 8.58217L32.7017 8.86032ZM33.692 9.99939H54.6436V5.99939H33.692V9.99939ZM29.8929 43.2417L34.6823 9.13847L30.7211 8.58217L25.9317 42.6854L29.8929 43.2417ZM33.247 42.1027H28.9026V46.1027H33.247V42.1027ZM29.8852 73.4192L36.1723 45.7678L32.2719 44.8809L25.9847 72.5323L29.8852 73.4192ZM55.3757 34.3208L28.0956 72.6173L31.3535 74.938L58.6337 36.6415L55.3757 34.3208ZM47.9911 35.8692L56.1863 35.901L56.2019 31.901L48.0067 31.8692L47.9911 35.8692ZM53.7049 8.65447L45.1869 31.8344L48.9414 33.2141L57.4595 10.0342L53.7049 8.65447ZM48.0067 31.8692C48.7004 31.8719 49.1807 32.5629 48.9414 33.2141L45.1869 31.8344C44.469 33.7879 45.9099 35.8611 47.9911 35.8692L48.0067 31.8692ZM58.6337 36.6415C60.0453 34.6599 58.6349 31.9104 56.2019 31.901L56.1863 35.901C55.3753 35.8978 54.9052 34.9813 55.3757 34.3208L58.6337 36.6415ZM25.9847 72.5323C25.2579 75.729 29.4515 77.6081 31.3535 74.938L28.0956 72.6173C28.7296 71.7273 30.1275 72.3537 29.8852 73.4192L25.9847 72.5323ZM33.247 46.1027C32.6052 46.1027 32.1296 45.5067 32.2719 44.8809L36.1723 45.7678C36.5992 43.8904 35.1723 42.1027 33.247 42.1027V46.1027ZM25.9317 42.6854C25.6782 44.4905 27.0798 46.1027 28.9026 46.1027V42.1027C29.5102 42.1027 29.9774 42.64 29.8929 43.2417L25.9317 42.6854ZM54.6436 9.99939C53.9482 9.99939 53.4651 9.30719 53.7049 8.65447L57.4595 10.0342C58.179 8.07599 56.7298 5.99939 54.6436 5.99939V9.99939ZM33.692 5.99939C32.1963 5.99939 30.9291 7.10106 30.7211 8.58217L34.6823 9.13847C34.6129 9.63216 34.1905 9.99939 33.692 9.99939V5.99939Z" fill="black" mask="url(#path-4-outside-1_104_2)"/>
    </g>
    </g>
    </g>
    <defs>
    <filter id="filter0_d_104_2" x="10.0625" y="4.1875" width="66.0625" height="73.9253" filterUnits="userSpaceOnUse" color-interpolation-filters="sRGB">
    <feFlood flood-opacity="0" result="BackgroundImageFix"/>
    <feColorMatrix in="SourceAlpha" type="matrix" values="0 0 0 0 0 0 0 0 0 0 0 0 0 0 0 0 0 0 127 0" result="hardAlpha"/>
    <feOffset/>
    <feGaussianBlur stdDeviation="3"/>
    <feComposite in2="hardAlpha" operator="out"/>
    <feColorMatrix type="matrix" values="0 0 0 0 0 0 0 0 0 0 0 0 0 0 0 0 0 0 0.25 0"/>
    <feBlend mode="normal" in2="BackgroundImageFix" result="effect1_dropShadow_104_2"/>
    <feBlend mode="normal" in="SourceGraphic" in2="effect1_dropShadow_104_2" result="shape"/>
    </filter>
    <filter id="filter1_d_104_2" x="19.901" y="-0.000610352" width="45.2944" height="82.212" filterUnits="userSpaceOnUse" color-interpolation-filters="sRGB">
    <feFlood flood-opacity="0" result="BackgroundImageFix"/>
    <feColorMatrix in="SourceAlpha" type="matrix" values="0 0 0 0 0 0 0 0 0 0 0 0 0 0 0 0 0 0 127 0" result="hardAlpha"/>
    <feOffset/>
    <feGaussianBlur stdDeviation="3"/>
    <feComposite in2="hardAlpha" operator="out"/>
    <feColorMatrix type="matrix" values="0 0 0 0 0 0 0 0 0 0 0 0 0 0 0 0 0 0 0.25 0"/>
    <feBlend mode="normal" in2="BackgroundImageFix" result="effect1_dropShadow_104_2"/>
    <feBlend mode="normal" in="SourceGraphic" in2="effect1_dropShadow_104_2" result="shape"/>
    </filter>
    <linearGradient id="paint0_linear_104_2" x1="19.5" y1="35.375" x2="68.125" y2="36" gradientUnits="userSpaceOnUse">
    <stop stop-color="#C4C4C4"/>
    <stop offset="1" stop-color="#D8D8D8"/>
    </linearGradient>
    <linearGradient id="paint1_linear_104_2" x1="19.5" y1="35.375" x2="68.125" y2="36" gradientUnits="userSpaceOnUse">
    <stop stop-color="#C4C4C4"/>
    <stop offset="1" stop-color="#D8D8D8"/>
    </linearGradient>
    <linearGradient id="paint2_linear_104_2" x1="19.5" y1="35.375" x2="68.125" y2="36" gradientUnits="userSpaceOnUse">
    <stop stop-color="#C4C4C4"/>
    <stop offset="1" stop-color="#D8D8D8"/>
    </linearGradient>
    <linearGradient id="paint3_linear_104_2" x1="19.5" y1="35.375" x2="68.125" y2="36" gradientUnits="userSpaceOnUse">
    <stop stop-color="#C4C4C4"/>
    <stop offset="1" stop-color="#D8D8D8"/>
    </linearGradient>
    <linearGradient id="paint4_linear_104_2" x1="42.5472" y1="7.99939" x2="42.5472" y2="74.2021" gradientUnits="userSpaceOnUse">
    <stop stop-color="#FFED00"/>
    <stop offset="1" stop-color="#FFC800"/>
    </linearGradient>
    <clipPath id="clip0_104_2">
    <rect width="523" height="85" fill="white"/>
    </clipPath>
    <clipPath id="clip1_104_2">
    <rect width="80" height="80" fill="white" transform="translate(3.125)"/>
    </clipPath>
    </defs>
    </svg>
