<?xml version="1.0" encoding="utf-8"?>
<!-- Svg Vector Icons : http://www.onlinewebfonts.com/icon -->
<!DOCTYPE svg PUBLIC "-//W3C//DTD SVG 1.1//EN" "http://www.w3.org/Graphics/SVG/1.1/DTD/svg11.dtd">
<svg version="1.1" xmlns="http://www.w3.org/2000/svg" xmlns:xlink="http://www.w3.org/1999/xlink" x="0px" y="0px" viewBox="0 0 1000 1000" enable-background="new 0 0 1000 1000" xml:space="preserve">
<g fill="white"><path d="M58,745c24,41.6,78,63.7,156.1,63.7c0,0,0,0,0,0c35.1,0,73.7-4.9,114-13.4C366.9,914,428.8,990,500,990c71.2,0,133.1-76,171.9-194.7c40.3,8.5,78.9,13.4,114,13.4l0,0c78,0,132-22,156.1-63.7c31.1-53.9,3.6-144.5-90.9-245c94.4-100.5,122-191.1,90.9-245c-24.1-41.6-78-63.7-156.1-63.7c-35.1,0-73.7,4.9-114,13.4C633.2,86,571.3,10,500,10c-71.2,0-133.1,76-171.9,194.8c-40.3-8.5-78.9-13.4-114-13.4C136,191.3,82,213.4,58,255c-31.1,53.9-3.6,144.6,90.8,245C54.4,600.5,26.8,691.1,58,745z M500,959.4c-56.3,0-107.7-67.3-141.7-170.9c46-11.6,93.9-28.2,141.7-49c47.8,20.8,95.7,37.3,141.7,49C607.7,892,556.3,959.4,500,959.4z M316.3,500c0-35.7,1.9-70.3,5.2-103.9c27.3-19.1,56.2-37.6,86.7-55.3c30.1-17.4,61-33,91.9-46.9c30.9,13.9,61.7,29.5,91.9,46.9c30.5,17.6,59.3,36.2,86.7,55.3c3.2,33.6,5.1,68.2,5.1,103.9c0,35.6-1.9,70.3-5.1,103.9c-27.4,19.1-56.3,37.6-86.7,55.2c-30.1,17.4-61,33-91.9,46.9c-30.9-13.9-61.8-29.5-91.9-46.9c-30.5-17.6-59.4-36.1-86.7-55.2C318.2,570.4,316.3,535.7,316.3,500z M288.7,580.3c-35.1-26.4-66.9-53.4-94.5-80.3c27.6-26.9,59.4-54,94.5-80.3c-1.8,26.1-3,52.8-3,80.3C285.6,527.5,286.8,554.2,288.7,580.3z M326.1,355.6c5.6-41.1,13.5-79.8,23.4-115c36.6,9.2,74.6,21.9,112.8,37.3c-23.4,11.3-46.6,23.2-69.5,36.4C369.2,328,347.3,341.8,326.1,355.6z M537.7,278c38.2-15.4,76.2-28.1,112.8-37.3c9.8,35.2,17.8,73.9,23.4,115c-21.1-13.8-43.1-27.6-66.7-41.3C584.4,301.2,561.1,289.3,537.7,278z M711.4,419.7c35.1,26.4,66.9,53.4,94.5,80.3c-27.6,26.9-59.4,53.9-94.5,80.3c1.8-26.1,3-52.8,3-80.3C714.4,472.5,713.2,445.8,711.4,419.7z M673.9,644.4c-5.6,41-13.5,79.7-23.4,115c-36.6-9.2-74.6-22-112.8-37.4c23.4-11.3,46.6-23.2,69.5-36.3C630.9,672,652.8,658.2,673.9,644.4z M392.8,685.7c22.8,13.2,46.1,25.1,69.5,36.3c-38.2,15.4-76.2,28.1-112.8,37.4c-9.9-35.2-17.8-73.9-23.4-115C347.3,658.2,369.2,672,392.8,685.7z M915.5,729.7c-18,31.2-64,48.4-129.5,48.4c-32.4,0-67.9-4.5-105.1-12.1c12.1-43.6,21.2-92.1,26.9-144.1c47.3-33.2,87.3-66.4,120.7-98.9C905.9,605,942.5,682.9,915.5,729.7z M786,221.9c65.5,0,111.5,17.2,129.5,48.4c27,46.8-9.6,124.7-87.1,206.8c-33.4-32.5-73.3-65.7-120.7-98.9c-5.6-52-14.7-100.5-26.8-144.1C718,226.4,753.6,221.9,786,221.9z M500,40.6c56.3,0,107.7,67.4,141.7,170.9c-46,11.7-93.9,28.2-141.7,49c-47.8-20.8-95.7-37.3-141.7-49C392.3,108,443.7,40.6,500,40.6z M84.5,270.3c18-31.2,64-48.4,129.6-48.4c32.3,0,67.9,4.5,105.1,12.1c-12.1,43.6-21.2,92.1-26.9,144.1c-47.3,33.2-87.3,66.4-120.7,98.9C94.1,395,57.5,317.1,84.5,270.3z M171.6,522.9c33.4,32.5,73.3,65.7,120.7,98.9c5.6,52,14.7,100.5,26.9,144.1c-37.2,7.7-72.7,12.1-105.1,12.1h0c-65.5,0-111.6-17.2-129.6-48.4C57.5,682.9,94.1,605,171.6,522.9z"/><path d="M500,576.6c42.2,0,76.6-34.4,76.6-76.6c0-42.3-34.4-76.6-76.6-76.6c-42.2,0-76.6,34.3-76.6,76.6C423.5,542.2,457.8,576.6,500,576.6z M500,454.1c25.3,0,45.9,20.6,45.9,45.9c0,25.3-20.6,45.9-45.9,45.9c-25.3,0-45.9-20.6-45.9-45.9C454.1,474.7,474.7,454.1,500,454.1z"/></g>
</svg>