<svg width="495" height="80" viewBox="0 0 495 80" fill="none" xmlns="http://www.w3.org/2000/svg">
    <g clip-path="url(#clip0_208_32)">
        <path d="M89.1974 68V12.7273H108.899C113.199 12.7273 116.762 13.5099 119.587 15.0753C122.411 16.6406 124.526 18.7817 125.929 21.4986C127.332 24.1974 128.034 27.2382 128.034 30.6207C128.034 34.0213 127.323 37.08 125.902 39.7969C124.499 42.4957 122.375 44.6368 119.533 46.2202C116.708 47.7855 113.154 48.5682 108.872 48.5682H95.3239V41.4972H108.116C110.833 41.4972 113.037 41.0294 114.729 40.0938C116.42 39.1402 117.661 37.8447 118.453 36.2074C119.245 34.5701 119.641 32.7079 119.641 30.6207C119.641 28.5336 119.245 26.6804 118.453 25.0611C117.661 23.4418 116.411 22.1733 114.702 21.2557C113.01 20.3381 110.779 19.8793 108.009 19.8793H97.5369V68H89.1974ZM149.165 68.8366C145.279 68.8366 141.887 67.946 138.99 66.1648C136.094 64.3835 133.845 61.8916 132.243 58.6889C130.642 55.4863 129.841 51.7438 129.841 47.4616C129.841 43.1615 130.642 39.401 132.243 36.1804C133.845 32.9598 136.094 30.4588 138.99 28.6776C141.887 26.8963 145.279 26.0057 149.165 26.0057C153.051 26.0057 156.443 26.8963 159.34 28.6776C162.237 30.4588 164.486 32.9598 166.087 36.1804C167.688 39.401 168.489 43.1615 168.489 47.4616C168.489 51.7438 167.688 55.4863 166.087 58.6889C164.486 61.8916 162.237 64.3835 159.34 66.1648C156.443 67.946 153.051 68.8366 149.165 68.8366ZM149.192 62.0625C151.711 62.0625 153.798 61.3968 155.453 60.0653C157.109 58.7339 158.332 56.9616 159.124 54.7486C159.934 52.5355 160.338 50.0975 160.338 47.4347C160.338 44.7898 159.934 42.3608 159.124 40.1477C158.332 37.9167 157.109 36.1264 155.453 34.777C153.798 33.4276 151.711 32.7528 149.192 32.7528C146.655 32.7528 144.55 33.4276 142.877 34.777C141.221 36.1264 139.989 37.9167 139.179 40.1477C138.388 42.3608 137.992 44.7898 137.992 47.4347C137.992 50.0975 138.388 52.5355 139.179 54.7486C139.989 56.9616 141.221 58.7339 142.877 60.0653C144.55 61.3968 146.655 62.0625 149.192 62.0625ZM180.282 68L168.083 26.5455H176.423L184.546 56.9886H184.951L193.102 26.5455H201.441L209.538 56.8537H209.942L218.012 26.5455H226.352L214.18 68H205.948L197.528 38.0696H196.907L188.486 68H180.282ZM245.674 68.8366C241.59 68.8366 238.073 67.964 235.122 66.2188C232.189 64.4555 229.922 61.9815 228.321 58.7969C226.737 55.5942 225.946 51.8428 225.946 47.5426C225.946 43.2964 226.737 39.554 228.321 36.3153C229.922 33.0767 232.153 30.5488 235.014 28.7315C237.893 26.9143 241.257 26.0057 245.108 26.0057C247.447 26.0057 249.714 26.3925 251.909 27.1662C254.104 27.9399 256.074 29.1544 257.819 30.8097C259.564 32.465 260.941 34.6151 261.948 37.2599C262.956 39.8868 263.46 43.0805 263.46 46.8409V49.7017H230.507V43.6562H255.552C255.552 41.5331 255.12 39.6529 254.257 38.0156C253.393 36.3603 252.179 35.0559 250.613 34.1023C249.066 33.1487 247.249 32.6719 245.162 32.6719C242.894 32.6719 240.915 33.2296 239.224 34.3452C237.551 35.4427 236.255 36.8821 235.338 38.6634C234.438 40.4266 233.988 42.3428 233.988 44.4119V49.1349C233.988 51.9058 234.474 54.2628 235.446 56.206C236.435 58.1491 237.812 59.6335 239.575 60.6591C241.338 61.6667 243.398 62.1705 245.755 62.1705C247.285 62.1705 248.679 61.9545 249.939 61.5227C251.198 61.0729 252.287 60.4072 253.204 59.5256C254.122 58.6439 254.823 57.5554 255.309 56.2599L262.947 57.6364C262.335 59.8854 261.238 61.8556 259.654 63.5469C258.089 65.2202 256.119 66.5246 253.744 67.4602C251.387 68.3778 248.697 68.8366 245.674 68.8366ZM267.473 68V26.5455H275.273V33.1307H275.705C276.461 30.8996 277.792 29.1454 279.699 27.8679C281.624 26.5724 283.801 25.9247 286.23 25.9247C286.734 25.9247 287.328 25.9427 288.012 25.9787C288.713 26.0147 289.262 26.0597 289.658 26.1136V33.8324C289.334 33.7424 288.758 33.6435 287.931 33.5355C287.103 33.4096 286.275 33.3466 285.448 33.3466C283.541 33.3466 281.84 33.7514 280.347 34.5611C278.872 35.3527 277.702 36.4593 276.838 37.8807C275.975 39.2841 275.543 40.8854 275.543 42.6847V68H267.473ZM337.669 27.2472C337.381 24.6922 336.193 22.7131 334.106 21.3097C332.019 19.8883 329.392 19.1776 326.225 19.1776C323.958 19.1776 321.997 19.5374 320.342 20.2571C318.687 20.9588 317.4 21.9304 316.483 23.1719C315.583 24.3954 315.133 25.7898 315.133 27.3551C315.133 28.6686 315.439 29.8021 316.051 30.7557C316.68 31.7093 317.499 32.5099 318.507 33.1577C319.532 33.7874 320.63 34.3182 321.799 34.75C322.969 35.1638 324.093 35.5057 325.173 35.7756L330.571 37.179C332.334 37.6108 334.142 38.1955 335.995 38.9332C337.849 39.6709 339.567 40.6425 341.15 41.848C342.733 43.0535 344.011 44.5469 344.983 46.3281C345.972 48.1094 346.467 50.2415 346.467 52.7244C346.467 55.8551 345.657 58.6349 344.038 61.0639C342.437 63.4929 340.107 65.4091 337.048 66.8125C334.007 68.2159 330.328 68.9176 326.01 68.9176C321.871 68.9176 318.291 68.2609 315.268 66.9474C312.245 65.634 309.879 63.7718 308.17 61.3608C306.461 58.9318 305.516 56.053 305.336 52.7244H313.703C313.865 54.7216 314.512 56.3859 315.646 57.7173C316.797 59.0308 318.264 60.0114 320.045 60.6591C321.844 61.2888 323.814 61.6037 325.956 61.6037C328.313 61.6037 330.409 61.2348 332.244 60.4972C334.097 59.7415 335.554 58.6979 336.616 57.3665C337.678 56.017 338.208 54.4427 338.208 52.6435C338.208 51.0062 337.741 49.6657 336.805 48.6222C335.887 47.5786 334.637 46.715 333.054 46.0312C331.488 45.3475 329.716 44.7448 327.737 44.223L321.206 42.4418C316.779 41.2363 313.271 39.464 310.68 37.125C308.107 34.786 306.821 31.6913 306.821 27.8409C306.821 24.6562 307.684 21.8764 309.411 19.5014C311.139 17.1264 313.478 15.2822 316.429 13.9688C319.379 12.6373 322.708 11.9716 326.414 11.9716C330.157 11.9716 333.458 12.6283 336.319 13.9418C339.198 15.2552 341.465 17.0634 343.12 19.3665C344.776 21.6515 345.639 24.2784 345.711 27.2472H337.669ZM370.196 26.5455V33.0227H347.552V26.5455H370.196ZM353.625 16.6136H361.694V55.8281C361.694 57.3935 361.928 58.572 362.396 59.3636C362.864 60.1373 363.466 60.6681 364.204 60.956C364.96 61.2259 365.778 61.3608 366.66 61.3608C367.308 61.3608 367.875 61.3158 368.36 61.2259C368.846 61.1359 369.224 61.0639 369.494 61.0099L370.951 67.6761C370.483 67.8561 369.818 68.036 368.954 68.2159C368.09 68.4138 367.011 68.5218 365.715 68.5398C363.592 68.5758 361.613 68.1979 359.778 67.4062C357.943 66.6146 356.458 65.3911 355.325 63.7358C354.191 62.0805 353.625 60.0024 353.625 57.5014V16.6136ZM386.246 68.9176C383.619 68.9176 381.244 68.4318 379.121 67.4602C376.998 66.4706 375.316 65.0402 374.074 63.169C372.851 61.2978 372.239 59.0038 372.239 56.2869C372.239 53.9479 372.689 52.0227 373.588 50.5114C374.488 49 375.702 47.8035 377.232 46.9219C378.761 46.0402 380.47 45.3745 382.36 44.9247C384.249 44.4749 386.174 44.133 388.135 43.8991C390.618 43.6113 392.633 43.3774 394.181 43.1974C395.728 42.9995 396.853 42.6847 397.554 42.2528C398.256 41.821 398.607 41.1193 398.607 40.1477V39.9588C398.607 37.6018 397.941 35.7756 396.61 34.4801C395.296 33.1847 393.335 32.5369 390.726 32.5369C388.009 32.5369 385.868 33.1397 384.303 34.3452C382.755 35.5327 381.685 36.8551 381.091 38.3125L373.507 36.5852C374.407 34.0663 375.72 32.0331 377.448 30.4858C379.193 28.9205 381.199 27.7869 383.466 27.0852C385.733 26.3655 388.117 26.0057 390.618 26.0057C392.273 26.0057 394.028 26.2036 395.881 26.5994C397.752 26.9773 399.497 27.679 401.117 28.7045C402.754 29.7301 404.094 31.1965 405.138 33.1037C406.182 34.9929 406.703 37.4489 406.703 40.4716V68H398.823V62.3324H398.499C397.977 63.3759 397.194 64.4015 396.151 65.4091C395.107 66.4167 393.767 67.2533 392.13 67.919C390.492 68.5848 388.531 68.9176 386.246 68.9176ZM388 62.4403C390.231 62.4403 392.139 61.9995 393.722 61.1179C395.323 60.2363 396.538 59.0848 397.365 57.6634C398.211 56.224 398.634 54.6856 398.634 53.0483V47.7045C398.346 47.9924 397.788 48.2623 396.96 48.5142C396.151 48.7481 395.224 48.955 394.181 49.1349C393.137 49.2969 392.121 49.4498 391.131 49.5938C390.141 49.7197 389.314 49.8277 388.648 49.9176C387.083 50.1155 385.652 50.4484 384.357 50.9162C383.079 51.384 382.054 52.0587 381.28 52.9403C380.524 53.804 380.147 54.9555 380.147 56.3949C380.147 58.392 380.884 59.9034 382.36 60.929C383.835 61.9366 385.715 62.4403 388 62.4403ZM429.973 68.8366C425.961 68.8366 422.506 67.928 419.61 66.1108C416.731 64.2756 414.518 61.7476 412.97 58.527C411.423 55.3063 410.649 51.6179 410.649 47.4616C410.649 43.2514 411.441 39.536 413.024 36.3153C414.608 33.0767 416.839 30.5488 419.718 28.7315C422.596 26.9143 425.988 26.0057 429.892 26.0057C433.041 26.0057 435.848 26.5904 438.313 27.7599C440.778 28.9115 442.766 30.5308 444.277 32.6179C445.807 34.705 446.715 37.143 447.003 39.9318H439.149C438.718 37.9886 437.728 36.3153 436.181 34.9119C434.651 33.5085 432.6 32.8068 430.027 32.8068C427.778 32.8068 425.808 33.4006 424.117 34.5881C422.443 35.7576 421.139 37.4309 420.203 39.608C419.268 41.767 418.8 44.322 418.8 47.2727C418.8 50.2955 419.259 52.9044 420.176 55.0994C421.094 57.2945 422.389 58.9948 424.063 60.2003C425.754 61.4058 427.742 62.0085 430.027 62.0085C431.557 62.0085 432.942 61.7296 434.183 61.1719C435.443 60.5961 436.496 59.7775 437.341 58.7159C438.205 57.6544 438.808 56.3769 439.149 54.8835H447.003C446.715 57.5644 445.843 59.9574 444.385 62.0625C442.928 64.1676 440.976 65.8229 438.529 67.0284C436.1 68.2339 433.248 68.8366 429.973 68.8366ZM458.115 53.9389L458.061 44.0881H459.464L475.981 26.5455H485.643L466.805 46.517H465.536L458.115 53.9389ZM450.693 68V12.7273H458.762V68H450.693ZM476.872 68L462.028 48.2983L467.588 42.6577L486.777 68H476.872Z" fill="white"/>
        <g clip-path="url(#clip1_208_32)">
            <g filter="url(#filter0_d_208_32)">
                <path d="M18.0625 12.1875H68.0625V22.1875H18.0625V12.1875Z" fill="url(#paint0_linear_208_32)"/>
                <path d="M18.125 28.1562H68.125V38.1562H18.125V28.1562Z" fill="url(#paint1_linear_208_32)"/>
                <path d="M18.125 44.1438H68.125V54.1438H18.125V44.1438Z" fill="url(#paint2_linear_208_32)"/>
                <path d="M18.125 60.1128H68.125V70.1128H18.125V60.1128Z" fill="url(#paint3_linear_208_32)"/>
                <path d="M18.0625 11.1875C17.5102 11.1875 17.0625 11.6352 17.0625 12.1875V22.1875C17.0625 22.7398 17.5102 23.1875 18.0625 23.1875H68.0625C68.6148 23.1875 69.0625 22.7398 69.0625 22.1875V12.1875C69.0625 11.6352 68.6148 11.1875 68.0625 11.1875H18.0625ZM18.125 27.1562C17.5727 27.1562 17.125 27.604 17.125 28.1562V38.1562C17.125 38.7085 17.5727 39.1562 18.125 39.1562H68.125C68.6773 39.1562 69.125 38.7085 69.125 38.1562V28.1562C69.125 27.604 68.6773 27.1562 68.125 27.1562H18.125ZM18.125 43.1438C17.5727 43.1438 17.125 43.5915 17.125 44.1438V54.1438C17.125 54.6961 17.5727 55.1438 18.125 55.1438H68.125C68.6773 55.1438 69.125 54.6961 69.125 54.1438V44.1438C69.125 43.5915 68.6773 43.1438 68.125 43.1438H18.125ZM18.125 59.1128C17.5727 59.1128 17.125 59.5605 17.125 60.1128V70.1128C17.125 70.6651 17.5727 71.1128 18.125 71.1128H68.125C68.6773 71.1128 69.125 70.6651 69.125 70.1128V60.1128C69.125 59.5605 68.6773 59.1128 68.125 59.1128H18.125Z" stroke="white" stroke-width="2" stroke-linejoin="round"/>
            </g>
            <g filter="url(#filter1_d_208_32)">
                <mask id="path-4-outside-1_208_32" maskUnits="userSpaceOnUse" x="24.9023" y="5.99939" width="35" height="71" fill="black">
                    <rect fill="white" x="24.9023" y="5.99939" width="35" height="71"/>
                    <path fill-rule="evenodd" clip-rule="evenodd" d="M55.5821 9.34431C55.822 8.69159 55.3389 7.99939 54.6435 7.99939H33.6919C33.1934 7.99939 32.771 8.36661 32.7016 8.86032L27.9122 42.9636C27.8277 43.5653 28.2949 44.1027 28.9025 44.1027H33.2469C33.8887 44.1027 34.3643 44.6986 34.222 45.3244L27.9349 72.9758C27.6926 74.0413 29.0905 74.6677 29.7245 73.7777L57.0046 35.4812C57.4752 34.8206 57.0051 33.9041 56.194 33.901L47.9988 33.8692C47.3051 33.8665 46.8248 33.1754 47.0641 32.5243L55.5821 9.34431Z"/>
                </mask>
                <path fill-rule="evenodd" clip-rule="evenodd" d="M55.5821 9.34431C55.822 8.69159 55.3389 7.99939 54.6435 7.99939H33.6919C33.1934 7.99939 32.771 8.36661 32.7016 8.86032L27.9122 42.9636C27.8277 43.5653 28.2949 44.1027 28.9025 44.1027H33.2469C33.8887 44.1027 34.3643 44.6986 34.222 45.3244L27.9349 72.9758C27.6926 74.0413 29.0905 74.6677 29.7245 73.7777L57.0046 35.4812C57.4752 34.8206 57.0051 33.9041 56.194 33.901L47.9988 33.8692C47.3051 33.8665 46.8248 33.1754 47.0641 32.5243L55.5821 9.34431Z" fill="url(#paint4_linear_208_32)"/>
                <path d="M47.9988 33.8692L47.9911 35.8692L47.9988 33.8692ZM47.0641 32.5243L45.1868 31.8344L47.0641 32.5243ZM56.194 33.901L56.1863 35.901L56.194 33.901ZM27.9349 72.9758L25.9847 72.5323L27.9349 72.9758ZM29.7245 73.7777L31.3535 74.9381L29.7245 73.7777ZM34.222 45.3244L32.2718 44.8809L34.222 45.3244ZM55.5821 9.34431L53.7049 8.65447L55.5821 9.34431ZM32.7016 8.86032L30.7211 8.58217L32.7016 8.86032ZM33.6919 9.99939H54.6435V5.99939H33.6919V9.99939ZM29.8928 43.2417L34.6822 9.13847L30.7211 8.58217L25.9317 42.6854L29.8928 43.2417ZM33.2469 42.1027H28.9025V46.1027H33.2469V42.1027ZM29.8851 73.4192L36.1723 45.7678L32.2718 44.8809L25.9847 72.5323L29.8851 73.4192ZM55.3757 34.3208L28.0955 72.6173L31.3535 74.9381L58.6336 36.6415L55.3757 34.3208ZM47.9911 35.8692L56.1863 35.901L56.2018 31.901L48.0066 31.8692L47.9911 35.8692ZM53.7049 8.65447L45.1868 31.8344L48.9413 33.2141L57.4594 10.0342L53.7049 8.65447ZM48.0066 31.8692C48.7003 31.8719 49.1806 32.5629 48.9413 33.2141L45.1868 31.8344C44.4689 33.7879 45.9098 35.8611 47.9911 35.8692L48.0066 31.8692ZM58.6336 36.6415C60.0452 34.6599 58.6348 31.9104 56.2018 31.901L56.1863 35.901C55.3753 35.8978 54.9051 34.9813 55.3757 34.3208L58.6336 36.6415ZM25.9847 72.5323C25.2579 75.7289 29.4515 77.6081 31.3535 74.9381L28.0955 72.6173C28.7295 71.7273 30.1274 72.3537 29.8851 73.4192L25.9847 72.5323ZM33.2469 46.1027C32.6052 46.1027 32.1295 45.5067 32.2718 44.8809L36.1723 45.7678C36.5991 43.8904 35.1722 42.1027 33.2469 42.1027V46.1027ZM25.9317 42.6854C25.6782 44.4905 27.0797 46.1027 28.9025 46.1027V42.1027C29.5101 42.1027 29.9773 42.64 29.8928 43.2417L25.9317 42.6854ZM54.6435 9.99939C53.9481 9.99939 53.465 9.30719 53.7049 8.65447L57.4594 10.0342C58.179 8.07599 56.7297 5.99939 54.6435 5.99939V9.99939ZM33.6919 5.99939C32.1962 5.99939 30.9291 7.10106 30.7211 8.58217L34.6822 9.13847C34.6129 9.63216 34.1905 9.99939 33.6919 9.99939V5.99939Z" fill="white" mask="url(#path-4-outside-1_208_32)"/>
            </g>
        </g>
    </g>
    <defs>
        <filter id="filter0_d_208_32" x="10.0625" y="4.1875" width="66.0625" height="73.9253" filterUnits="userSpaceOnUse" color-interpolation-filters="sRGB">
            <feFlood flood-opacity="0" result="BackgroundImageFix"/>
            <feColorMatrix in="SourceAlpha" type="matrix" values="0 0 0 0 0 0 0 0 0 0 0 0 0 0 0 0 0 0 127 0" result="hardAlpha"/>
            <feOffset/>
            <feGaussianBlur stdDeviation="3"/>
            <feComposite in2="hardAlpha" operator="out"/>
            <feColorMatrix type="matrix" values="0 0 0 0 0 0 0 0 0 0 0 0 0 0 0 0 0 0 0.25 0"/>
            <feBlend mode="normal" in2="BackgroundImageFix" result="effect1_dropShadow_208_32"/>
            <feBlend mode="normal" in="SourceGraphic" in2="effect1_dropShadow_208_32" result="shape"/>
        </filter>
        <filter id="filter1_d_208_32" x="19.901" y="-0.000610352" width="45.2944" height="82.212" filterUnits="userSpaceOnUse" color-interpolation-filters="sRGB">
            <feFlood flood-opacity="0" result="BackgroundImageFix"/>
            <feColorMatrix in="SourceAlpha" type="matrix" values="0 0 0 0 0 0 0 0 0 0 0 0 0 0 0 0 0 0 127 0" result="hardAlpha"/>
            <feOffset/>
            <feGaussianBlur stdDeviation="3"/>
            <feComposite in2="hardAlpha" operator="out"/>
            <feColorMatrix type="matrix" values="0 0 0 0 0 0 0 0 0 0 0 0 0 0 0 0 0 0 0.25 0"/>
            <feBlend mode="normal" in2="BackgroundImageFix" result="effect1_dropShadow_208_32"/>
            <feBlend mode="normal" in="SourceGraphic" in2="effect1_dropShadow_208_32" result="shape"/>
        </filter>
        <linearGradient id="paint0_linear_208_32" x1="19.5" y1="35.375" x2="68.125" y2="36" gradientUnits="userSpaceOnUse">
            <stop stop-color="#C4C4C4"/>
            <stop offset="1" stop-color="#D8D8D8"/>
        </linearGradient>
        <linearGradient id="paint1_linear_208_32" x1="19.5" y1="35.375" x2="68.125" y2="36" gradientUnits="userSpaceOnUse">
            <stop stop-color="#C4C4C4"/>
            <stop offset="1" stop-color="#D8D8D8"/>
        </linearGradient>
        <linearGradient id="paint2_linear_208_32" x1="19.5" y1="35.375" x2="68.125" y2="36" gradientUnits="userSpaceOnUse">
            <stop stop-color="#C4C4C4"/>
            <stop offset="1" stop-color="#D8D8D8"/>
        </linearGradient>
        <linearGradient id="paint3_linear_208_32" x1="19.5" y1="35.375" x2="68.125" y2="36" gradientUnits="userSpaceOnUse">
            <stop stop-color="#C4C4C4"/>
            <stop offset="1" stop-color="#D8D8D8"/>
        </linearGradient>
        <linearGradient id="paint4_linear_208_32" x1="42.5471" y1="7.99939" x2="42.5471" y2="74.2021" gradientUnits="userSpaceOnUse">
            <stop stop-color="#FFED00"/>
            <stop offset="1" stop-color="#FFC800"/>
        </linearGradient>
        <clipPath id="clip0_208_32">
            <rect width="495" height="80" fill="white"/>
        </clipPath>
        <clipPath id="clip1_208_32">
            <rect width="80" height="80" fill="white" transform="translate(3.125)"/>
        </clipPath>
    </defs>
</svg>
