<svg width="83" height="85" viewBox="0 0 83 85" fill="none" xmlns="http://www.w3.org/2000/svg">
<mask id="mask0_1_24" style="mask-type:luminance" maskUnits="userSpaceOnUse" x="0" y="0" width="83" height="85">
<path d="M83 0H0V85H83V0Z" fill="white"/>
</mask>
<g mask="url(#mask0_1_24)">
<mask id="mask1_1_24" style="mask-type:luminance" maskUnits="userSpaceOnUse" x="3" y="0" width="81" height="80">
<path d="M83.125 0H3.125V80H83.125V0Z" fill="white"/>
</mask>
<g mask="url(#mask1_1_24)">
<g filter="url(#filter0_d_1_24)">
<path d="M18.0625 12.1875H68.0625V22.1875H18.0625V12.1875Z" fill="url(#paint0_linear_1_24)"/>
<path d="M18.125 28.1562H68.125V38.1562H18.125V28.1562Z" fill="url(#paint1_linear_1_24)"/>
<path d="M18.125 44.1438H68.125V54.1438H18.125V44.1438Z" fill="url(#paint2_linear_1_24)"/>
<path d="M18.125 60.1128H68.125V70.1128H18.125V60.1128Z" fill="url(#paint3_linear_1_24)"/>
<path d="M18.0625 11.1875C17.5102 11.1875 17.0625 11.6352 17.0625 12.1875V22.1875C17.0625 22.7398 17.5102 23.1875 18.0625 23.1875H68.0625C68.6148 23.1875 69.0625 22.7398 69.0625 22.1875V12.1875C69.0625 11.6352 68.6148 11.1875 68.0625 11.1875H18.0625ZM18.125 27.1562C17.5727 27.1562 17.125 27.604 17.125 28.1562V38.1562C17.125 38.7085 17.5727 39.1562 18.125 39.1562H68.125C68.6773 39.1562 69.125 38.7085 69.125 38.1562V28.1562C69.125 27.604 68.6773 27.1562 68.125 27.1562H18.125ZM18.125 43.1438C17.5727 43.1438 17.125 43.5915 17.125 44.1438V54.1438C17.125 54.6961 17.5727 55.1438 18.125 55.1438H68.125C68.6773 55.1438 69.125 54.6961 69.125 54.1438V44.1438C69.125 43.5915 68.6773 43.1438 68.125 43.1438H18.125ZM18.125 59.1128C17.5727 59.1128 17.125 59.5605 17.125 60.1128V70.1128C17.125 70.6651 17.5727 71.1128 18.125 71.1128H68.125C68.6773 71.1128 69.125 70.6651 69.125 70.1128V60.1128C69.125 59.5605 68.6773 59.1128 68.125 59.1128H18.125Z" stroke="black" stroke-width="2" stroke-linejoin="round"/>
</g>
<g filter="url(#filter1_d_1_24)">
<path fill-rule="evenodd" clip-rule="evenodd" d="M55.5822 9.34431C55.8221 8.69159 55.339 7.99939 54.6436 7.99939H33.692C33.1934 7.99939 32.771 8.36661 32.7017 8.86032L27.9123 42.9636C27.8278 43.5653 28.295 44.1027 28.9026 44.1027H33.247C33.8887 44.1027 34.3644 44.6986 34.2221 45.3244L27.935 72.9758C27.6927 74.0413 29.0906 74.6677 29.7246 73.7777L57.0047 35.4812C57.4752 34.8206 57.0051 33.9041 56.1941 33.901L47.9989 33.8692C47.3051 33.8665 46.8249 33.1754 47.0641 32.5243L55.5822 9.34431Z" fill="url(#paint4_linear_1_24)"/>
<mask id="mask2_1_24" style="mask-type:luminance" maskUnits="userSpaceOnUse" x="24" y="5" width="36" height="72">
<path d="M59.9024 5.99939H24.9024V76.9994H59.9024V5.99939Z" fill="white"/>
<path fill-rule="evenodd" clip-rule="evenodd" d="M55.5822 9.34431C55.8221 8.69159 55.339 7.99939 54.6436 7.99939H33.692C33.1934 7.99939 32.771 8.36661 32.7017 8.86032L27.9123 42.9636C27.8278 43.5653 28.295 44.1027 28.9026 44.1027H33.247C33.8887 44.1027 34.3644 44.6986 34.2221 45.3244L27.935 72.9758C27.6927 74.0413 29.0906 74.6677 29.7246 73.7777L57.0047 35.4812C57.4752 34.8206 57.0051 33.9041 56.1941 33.901L47.9989 33.8692C47.3051 33.8665 46.8249 33.1754 47.0641 32.5243L55.5822 9.34431Z" fill="black"/>
</mask>
<g mask="url(#mask2_1_24)">
<path d="M33.692 9.99939H54.6436V5.99939H33.692V9.99939ZM29.8929 43.2417L34.6823 9.13847L30.7211 8.58217L25.9317 42.6854L29.8929 43.2417ZM33.247 42.1027H28.9026V46.1027H33.247V42.1027ZM29.8852 73.4192L36.1723 45.7678L32.2719 44.8809L25.9847 72.5323L29.8852 73.4192ZM55.3757 34.3208L28.0956 72.6173L31.3535 74.938L58.6337 36.6415L55.3757 34.3208ZM47.9911 35.8692L56.1863 35.901L56.2019 31.901L48.0067 31.8692L47.9911 35.8692ZM53.7049 8.65447L45.1869 31.8344L48.9414 33.2141L57.4595 10.0342L53.7049 8.65447ZM48.0067 31.8692C48.7004 31.8719 49.1807 32.5629 48.9414 33.2141L45.1869 31.8344C44.469 33.7879 45.9099 35.8611 47.9911 35.8692L48.0067 31.8692ZM58.6337 36.6415C60.0453 34.6599 58.6349 31.9104 56.2019 31.901L56.1863 35.901C55.3753 35.8978 54.9052 34.9813 55.3757 34.3208L58.6337 36.6415ZM25.9847 72.5323C25.2579 75.729 29.4515 77.6081 31.3535 74.938L28.0956 72.6173C28.7296 71.7273 30.1275 72.3537 29.8852 73.4192L25.9847 72.5323ZM33.247 46.1027C32.6052 46.1027 32.1296 45.5067 32.2719 44.8809L36.1723 45.7678C36.5992 43.8904 35.1723 42.1027 33.247 42.1027V46.1027ZM25.9317 42.6854C25.6782 44.4905 27.0798 46.1027 28.9026 46.1027V42.1027C29.5102 42.1027 29.9774 42.64 29.8929 43.2417L25.9317 42.6854ZM54.6436 9.99939C53.9482 9.99939 53.4651 9.30719 53.7049 8.65447L57.4595 10.0342C58.179 8.07599 56.7298 5.99939 54.6436 5.99939V9.99939ZM33.692 5.99939C32.1963 5.99939 30.9291 7.10106 30.7211 8.58217L34.6823 9.13847C34.6129 9.63216 34.1905 9.99939 33.692 9.99939V5.99939Z" fill="black"/>
</g>
</g>
</g>
</g>
<defs>
<filter id="filter0_d_1_24" x="10.0625" y="4.1875" width="66.0625" height="73.9253" filterUnits="userSpaceOnUse" color-interpolation-filters="sRGB">
<feFlood flood-opacity="0" result="BackgroundImageFix"/>
<feColorMatrix in="SourceAlpha" type="matrix" values="0 0 0 0 0 0 0 0 0 0 0 0 0 0 0 0 0 0 127 0" result="hardAlpha"/>
<feOffset/>
<feGaussianBlur stdDeviation="3"/>
<feComposite in2="hardAlpha" operator="out"/>
<feColorMatrix type="matrix" values="0 0 0 0 0 0 0 0 0 0 0 0 0 0 0 0 0 0 0.25 0"/>
<feBlend mode="normal" in2="BackgroundImageFix" result="effect1_dropShadow_1_24"/>
<feBlend mode="normal" in="SourceGraphic" in2="effect1_dropShadow_1_24" result="shape"/>
</filter>
<filter id="filter1_d_1_24" x="19.901" y="-0.000610352" width="45.2944" height="82.212" filterUnits="userSpaceOnUse" color-interpolation-filters="sRGB">
<feFlood flood-opacity="0" result="BackgroundImageFix"/>
<feColorMatrix in="SourceAlpha" type="matrix" values="0 0 0 0 0 0 0 0 0 0 0 0 0 0 0 0 0 0 127 0" result="hardAlpha"/>
<feOffset/>
<feGaussianBlur stdDeviation="3"/>
<feComposite in2="hardAlpha" operator="out"/>
<feColorMatrix type="matrix" values="0 0 0 0 0 0 0 0 0 0 0 0 0 0 0 0 0 0 0.25 0"/>
<feBlend mode="normal" in2="BackgroundImageFix" result="effect1_dropShadow_1_24"/>
<feBlend mode="normal" in="SourceGraphic" in2="effect1_dropShadow_1_24" result="shape"/>
</filter>
<linearGradient id="paint0_linear_1_24" x1="19.5" y1="35.375" x2="68.125" y2="36" gradientUnits="userSpaceOnUse">
<stop stop-color="#C4C4C4"/>
<stop offset="1" stop-color="#D8D8D8"/>
</linearGradient>
<linearGradient id="paint1_linear_1_24" x1="19.5" y1="35.375" x2="68.125" y2="36" gradientUnits="userSpaceOnUse">
<stop stop-color="#C4C4C4"/>
<stop offset="1" stop-color="#D8D8D8"/>
</linearGradient>
<linearGradient id="paint2_linear_1_24" x1="19.5" y1="35.375" x2="68.125" y2="36" gradientUnits="userSpaceOnUse">
<stop stop-color="#C4C4C4"/>
<stop offset="1" stop-color="#D8D8D8"/>
</linearGradient>
<linearGradient id="paint3_linear_1_24" x1="19.5" y1="35.375" x2="68.125" y2="36" gradientUnits="userSpaceOnUse">
<stop stop-color="#C4C4C4"/>
<stop offset="1" stop-color="#D8D8D8"/>
</linearGradient>
<linearGradient id="paint4_linear_1_24" x1="42.5472" y1="7.99939" x2="42.5472" y2="74.2021" gradientUnits="userSpaceOnUse">
<stop stop-color="#FFED00"/>
<stop offset="1" stop-color="#FFC800"/>
</linearGradient>
</defs>
</svg>
