<svg width="445" height="80" viewBox="0 0 445 80" fill="none" xmlns="http://www.w3.org/2000/svg">
<g clip-path="url(#clip0_107_37)">
<path d="M107.091 68H89.1974V12.7273H107.658C113.073 12.7273 117.724 13.8338 121.611 16.0469C125.497 18.2419 128.475 21.3996 130.544 25.5199C132.631 29.6222 133.675 34.5431 133.675 40.2827C133.675 46.0402 132.622 50.9882 130.517 55.1264C128.43 59.2647 125.407 62.4493 121.449 64.6804C117.491 66.8935 112.705 68 107.091 68ZM97.5369 60.7131H106.632C110.842 60.7131 114.342 59.9214 117.131 58.3381C119.92 56.7367 122.007 54.4247 123.392 51.402C124.777 48.3613 125.47 44.6548 125.47 40.2827C125.47 35.9465 124.777 32.267 123.392 29.2443C122.025 26.2216 119.982 23.9276 117.266 22.3622C114.549 20.7969 111.175 20.0142 107.145 20.0142H97.5369V60.7131ZM150.521 68.9176C147.894 68.9176 145.519 68.4318 143.396 67.4602C141.273 66.4706 139.591 65.0402 138.349 63.169C137.126 61.2978 136.514 59.0038 136.514 56.2869C136.514 53.9479 136.964 52.0227 137.864 50.5114C138.763 49 139.978 47.8035 141.507 46.9219C143.036 46.0402 144.746 45.3745 146.635 44.9247C148.524 44.4749 150.449 44.133 152.41 43.8991C154.893 43.6113 156.909 43.3774 158.456 43.1974C160.003 42.9995 161.128 42.6847 161.83 42.2528C162.531 41.821 162.882 41.1193 162.882 40.1477V39.9588C162.882 37.6018 162.216 35.7756 160.885 34.4801C159.571 33.1847 157.61 32.5369 155.001 32.5369C152.285 32.5369 150.143 33.1397 148.578 34.3452C147.031 35.5327 145.96 36.8551 145.366 38.3125L137.783 36.5852C138.682 34.0663 139.996 32.0331 141.723 30.4858C143.468 28.9205 145.474 27.7869 147.741 27.0852C150.009 26.3655 152.393 26.0057 154.893 26.0057C156.549 26.0057 158.303 26.2036 160.156 26.5994C162.027 26.9773 163.773 27.679 165.392 28.7045C167.029 29.7301 168.37 31.1965 169.413 33.1037C170.457 34.9929 170.979 37.4489 170.979 40.4716V68H163.098V62.3324H162.774C162.252 63.3759 161.47 64.4015 160.426 65.4091C159.383 66.4167 158.042 67.2533 156.405 67.919C154.768 68.5848 152.806 68.9176 150.521 68.9176ZM152.276 62.4403C154.507 62.4403 156.414 61.9995 157.997 61.1179C159.598 60.2363 160.813 59.0848 161.641 57.6634C162.486 56.224 162.909 54.6856 162.909 53.0483V47.7045C162.621 47.9924 162.063 48.2623 161.236 48.5142C160.426 48.7481 159.5 48.955 158.456 49.1349C157.412 49.2969 156.396 49.4498 155.406 49.5938C154.417 49.7197 153.589 49.8277 152.923 49.9176C151.358 50.1155 149.928 50.4484 148.632 50.9162C147.355 51.384 146.329 52.0587 145.555 52.9403C144.8 53.804 144.422 54.9555 144.422 56.3949C144.422 58.392 145.16 59.9034 146.635 60.929C148.11 61.9366 149.991 62.4403 152.276 62.4403ZM207.851 36.6662L200.537 37.9616C200.231 37.026 199.745 36.1354 199.08 35.2898C198.432 34.4441 197.55 33.7514 196.435 33.2116C195.319 32.6719 193.925 32.402 192.251 32.402C189.966 32.402 188.059 32.9148 186.53 33.9403C185 34.9479 184.236 36.2524 184.236 37.8537C184.236 39.2391 184.749 40.3546 185.774 41.2003C186.8 42.0459 188.455 42.7386 190.74 43.2784L197.325 44.7898C201.14 45.6714 203.982 47.0298 205.854 48.8651C207.725 50.7003 208.66 53.0843 208.66 56.017C208.66 58.5 207.941 60.7131 206.501 62.6562C205.08 64.5814 203.092 66.0928 200.537 67.1903C198 68.2879 195.058 68.8366 191.712 68.8366C187.07 68.8366 183.282 67.8471 180.349 65.8679C177.417 63.8707 175.617 61.0369 174.952 57.3665L182.751 56.179C183.237 58.2121 184.236 59.7505 185.747 60.794C187.258 61.8196 189.229 62.3324 191.658 62.3324C194.303 62.3324 196.417 61.7836 198 60.6861C199.583 59.5705 200.375 58.2121 200.375 56.6108C200.375 55.3153 199.889 54.2268 198.918 53.3452C197.964 52.4635 196.498 51.7978 194.518 51.348L187.501 49.8097C183.633 48.928 180.772 47.5246 178.919 45.5994C177.084 43.6742 176.166 41.2363 176.166 38.2855C176.166 35.8385 176.85 33.6974 178.217 31.8622C179.585 30.027 181.474 28.5966 183.885 27.571C186.296 26.5275 189.058 26.0057 192.17 26.0057C196.651 26.0057 200.177 26.9773 202.75 28.9205C205.323 30.8456 207.023 33.4276 207.851 36.6662ZM220.663 43.3864V68H212.593V12.7273H220.555V33.2926H221.067C222.039 31.0616 223.523 29.2893 225.521 27.9758C227.518 26.6624 230.127 26.0057 233.347 26.0057C236.19 26.0057 238.673 26.5904 240.796 27.7599C242.937 28.9294 244.593 30.6747 245.762 32.9957C246.95 35.2988 247.543 38.1776 247.543 41.6321V68H239.474V42.6037C239.474 39.563 238.691 37.206 237.126 35.5327C235.56 33.8414 233.383 32.9957 230.594 32.9957C228.687 32.9957 226.978 33.4006 225.467 34.2102C223.973 35.0199 222.795 36.2074 221.931 37.7727C221.085 39.3201 220.663 41.1913 220.663 43.3864ZM254.019 68V12.7273H262.089V33.2656H262.575C263.043 32.402 263.717 31.4034 264.599 30.2699C265.481 29.1364 266.704 28.1468 268.269 27.3011C269.835 26.4375 271.904 26.0057 274.477 26.0057C277.823 26.0057 280.81 26.8513 283.437 28.5426C286.064 30.2339 288.124 32.6719 289.617 35.8565C291.129 39.0412 291.885 42.8736 291.885 47.3537C291.885 51.8338 291.138 55.6752 289.644 58.8778C288.151 62.0625 286.1 64.5185 283.491 66.2457C280.882 67.955 277.904 68.8097 274.558 68.8097C272.039 68.8097 269.979 68.3868 268.377 67.5412C266.794 66.6955 265.553 65.706 264.653 64.5724C263.753 63.4389 263.061 62.4313 262.575 61.5497H261.9V68H254.019ZM261.927 47.2727C261.927 50.1875 262.35 52.7424 263.196 54.9375C264.041 57.1326 265.265 58.8509 266.866 60.0923C268.467 61.3158 270.429 61.9276 272.75 61.9276C275.161 61.9276 277.176 61.2888 278.795 60.0114C280.414 58.7159 281.638 56.9616 282.466 54.7486C283.311 52.5355 283.734 50.0436 283.734 47.2727C283.734 44.5379 283.32 42.0819 282.492 39.9048C281.683 37.7277 280.459 36.0095 278.822 34.75C277.203 33.4905 275.179 32.8608 272.75 32.8608C270.411 32.8608 268.431 33.4635 266.812 34.669C265.211 35.8745 263.996 37.5568 263.169 39.7159C262.341 41.875 261.927 44.3939 261.927 47.2727ZM313.468 68.8366C309.581 68.8366 306.19 67.946 303.293 66.1648C300.396 64.3835 298.147 61.8916 296.546 58.6889C294.944 55.4863 294.144 51.7438 294.144 47.4616C294.144 43.1615 294.944 39.401 296.546 36.1804C298.147 32.9598 300.396 30.4588 303.293 28.6776C306.19 26.8963 309.581 26.0057 313.468 26.0057C317.354 26.0057 320.746 26.8963 323.642 28.6776C326.539 30.4588 328.788 32.9598 330.389 36.1804C331.991 39.401 332.791 43.1615 332.791 47.4616C332.791 51.7438 331.991 55.4863 330.389 58.6889C328.788 61.8916 326.539 64.3835 323.642 66.1648C320.746 67.946 317.354 68.8366 313.468 68.8366ZM313.495 62.0625C316.014 62.0625 318.101 61.3968 319.756 60.0653C321.411 58.7339 322.635 56.9616 323.426 54.7486C324.236 52.5355 324.641 50.0975 324.641 47.4347C324.641 44.7898 324.236 42.3608 323.426 40.1477C322.635 37.9167 321.411 36.1264 319.756 34.777C318.101 33.4276 316.014 32.7528 313.495 32.7528C310.958 32.7528 308.853 33.4276 307.179 34.777C305.524 36.1264 304.291 37.9167 303.482 40.1477C302.69 42.3608 302.294 44.7898 302.294 47.4347C302.294 50.0975 302.69 52.5355 303.482 54.7486C304.291 56.9616 305.524 58.7339 307.179 60.0653C308.853 61.3968 310.958 62.0625 313.495 62.0625ZM348.923 68.9176C346.296 68.9176 343.921 68.4318 341.798 67.4602C339.675 66.4706 337.992 65.0402 336.751 63.169C335.527 61.2978 334.916 59.0038 334.916 56.2869C334.916 53.9479 335.366 52.0227 336.265 50.5114C337.165 49 338.379 47.8035 339.909 46.9219C341.438 46.0402 343.147 45.3745 345.036 44.9247C346.926 44.4749 348.851 44.133 350.812 43.8991C353.295 43.6113 355.31 43.3774 356.858 43.1974C358.405 42.9995 359.529 42.6847 360.231 42.2528C360.933 41.821 361.284 41.1193 361.284 40.1477V39.9588C361.284 37.6018 360.618 35.7756 359.286 34.4801C357.973 33.1847 356.012 32.5369 353.403 32.5369C350.686 32.5369 348.545 33.1397 346.98 34.3452C345.432 35.5327 344.362 36.8551 343.768 38.3125L336.184 36.5852C337.084 34.0663 338.397 32.0331 340.125 30.4858C341.87 28.9205 343.876 27.7869 346.143 27.0852C348.41 26.3655 350.794 26.0057 353.295 26.0057C354.95 26.0057 356.705 26.2036 358.558 26.5994C360.429 26.9773 362.174 27.679 363.794 28.7045C365.431 29.7301 366.771 31.1965 367.815 33.1037C368.858 34.9929 369.38 37.4489 369.38 40.4716V68H361.5V62.3324H361.176C360.654 63.3759 359.871 64.4015 358.828 65.4091C357.784 66.4167 356.444 67.2533 354.806 67.919C353.169 68.5848 351.208 68.9176 348.923 68.9176ZM350.677 62.4403C352.908 62.4403 354.815 61.9995 356.399 61.1179C358 60.2363 359.215 59.0848 360.042 57.6634C360.888 56.224 361.311 54.6856 361.311 53.0483V47.7045C361.023 47.9924 360.465 48.2623 359.637 48.5142C358.828 48.7481 357.901 48.955 356.858 49.1349C355.814 49.2969 354.797 49.4498 353.808 49.5938C352.818 49.7197 351.991 49.8277 351.325 49.9176C349.76 50.1155 348.329 50.4484 347.034 50.9162C345.756 51.384 344.731 52.0587 343.957 52.9403C343.201 53.804 342.823 54.9555 342.823 56.3949C342.823 58.392 343.561 59.9034 345.036 60.929C346.512 61.9366 348.392 62.4403 350.677 62.4403ZM375.188 68V26.5455H382.988V33.1307H383.42C384.176 30.8996 385.507 29.1454 387.414 27.8679C389.34 26.5724 391.517 25.9247 393.946 25.9247C394.449 25.9247 395.043 25.9427 395.727 25.9787C396.429 26.0147 396.977 26.0597 397.373 26.1136V33.8324C397.049 33.7424 396.474 33.6435 395.646 33.5355C394.818 33.4096 393.991 33.3466 393.163 33.3466C391.256 33.3466 389.555 33.7514 388.062 34.5611C386.587 35.3527 385.417 36.4593 384.554 37.8807C383.69 39.2841 383.258 40.8854 383.258 42.6847V68H375.188ZM413.451 68.8097C410.104 68.8097 407.117 67.955 404.49 66.2457C401.881 64.5185 399.83 62.0625 398.337 58.8778C396.862 55.6752 396.124 51.8338 396.124 47.3537C396.124 42.8736 396.871 39.0412 398.364 35.8565C399.875 32.6719 401.944 30.2339 404.571 28.5426C407.198 26.8513 410.176 26.0057 413.505 26.0057C416.077 26.0057 418.147 26.4375 419.712 27.3011C421.295 28.1468 422.519 29.1364 423.382 30.2699C424.264 31.4034 424.948 32.402 425.433 33.2656H425.919V12.7273H433.989V68H426.108V61.5497H425.433C424.948 62.4313 424.246 63.4389 423.328 64.5724C422.429 65.706 421.187 66.6955 419.604 67.5412C418.021 68.3868 415.969 68.8097 413.451 68.8097ZM415.232 61.9276C417.553 61.9276 419.514 61.3158 421.115 60.0923C422.735 58.8509 423.958 57.1326 424.786 54.9375C425.631 52.7424 426.054 50.1875 426.054 47.2727C426.054 44.3939 425.64 41.875 424.813 39.7159C423.985 37.5568 422.771 35.8745 421.169 34.669C419.568 33.4635 417.589 32.8608 415.232 32.8608C412.803 32.8608 410.779 33.4905 409.159 34.75C407.54 36.0095 406.317 37.7277 405.489 39.9048C404.679 42.0819 404.274 44.5379 404.274 47.2727C404.274 50.0436 404.688 52.5355 405.516 54.7486C406.344 56.9616 407.567 58.7159 409.186 60.0114C410.824 61.2888 412.839 61.9276 415.232 61.9276Z" fill="#101828"/>
<g clip-path="url(#clip1_107_37)">
<g filter="url(#filter0_d_107_37)">
<path d="M18.0625 12.1875H68.0625V22.1875H18.0625V12.1875Z" fill="url(#paint0_linear_107_37)"/>
<path d="M18.125 28.1562H68.125V38.1562H18.125V28.1562Z" fill="url(#paint1_linear_107_37)"/>
<path d="M18.125 44.1438H68.125V54.1438H18.125V44.1438Z" fill="url(#paint2_linear_107_37)"/>
<path d="M18.125 60.1128H68.125V70.1128H18.125V60.1128Z" fill="url(#paint3_linear_107_37)"/>
<path d="M18.0625 11.1875C17.5102 11.1875 17.0625 11.6352 17.0625 12.1875V22.1875C17.0625 22.7398 17.5102 23.1875 18.0625 23.1875H68.0625C68.6148 23.1875 69.0625 22.7398 69.0625 22.1875V12.1875C69.0625 11.6352 68.6148 11.1875 68.0625 11.1875H18.0625ZM18.125 27.1562C17.5727 27.1562 17.125 27.604 17.125 28.1562V38.1562C17.125 38.7085 17.5727 39.1562 18.125 39.1562H68.125C68.6773 39.1562 69.125 38.7085 69.125 38.1562V28.1562C69.125 27.604 68.6773 27.1562 68.125 27.1562H18.125ZM18.125 43.1438C17.5727 43.1438 17.125 43.5915 17.125 44.1438V54.1438C17.125 54.6961 17.5727 55.1438 18.125 55.1438H68.125C68.6773 55.1438 69.125 54.6961 69.125 54.1438V44.1438C69.125 43.5915 68.6773 43.1438 68.125 43.1438H18.125ZM18.125 59.1128C17.5727 59.1128 17.125 59.5605 17.125 60.1128V70.1128C17.125 70.6651 17.5727 71.1128 18.125 71.1128H68.125C68.6773 71.1128 69.125 70.6651 69.125 70.1128V60.1128C69.125 59.5605 68.6773 59.1128 68.125 59.1128H18.125Z" stroke="black" stroke-width="2" stroke-linejoin="round"/>
</g>
<g filter="url(#filter1_d_107_37)">
<mask id="path-4-outside-1_107_37" maskUnits="userSpaceOnUse" x="24.9023" y="5.99939" width="35" height="71" fill="black">
<rect fill="white" x="24.9023" y="5.99939" width="35" height="71"/>
<path fill-rule="evenodd" clip-rule="evenodd" d="M55.5821 9.34431C55.822 8.69159 55.3389 7.99939 54.6435 7.99939H33.6919C33.1934 7.99939 32.771 8.36661 32.7016 8.86032L27.9122 42.9636C27.8277 43.5653 28.2949 44.1027 28.9025 44.1027H33.2469C33.8887 44.1027 34.3643 44.6986 34.222 45.3244L27.9349 72.9758C27.6926 74.0413 29.0905 74.6677 29.7245 73.7777L57.0046 35.4812C57.4752 34.8206 57.0051 33.9041 56.194 33.901L47.9988 33.8692C47.3051 33.8665 46.8248 33.1754 47.0641 32.5243L55.5821 9.34431Z"/>
</mask>
<path fill-rule="evenodd" clip-rule="evenodd" d="M55.5821 9.34431C55.822 8.69159 55.3389 7.99939 54.6435 7.99939H33.6919C33.1934 7.99939 32.771 8.36661 32.7016 8.86032L27.9122 42.9636C27.8277 43.5653 28.2949 44.1027 28.9025 44.1027H33.2469C33.8887 44.1027 34.3643 44.6986 34.222 45.3244L27.9349 72.9758C27.6926 74.0413 29.0905 74.6677 29.7245 73.7777L57.0046 35.4812C57.4752 34.8206 57.0051 33.9041 56.194 33.901L47.9988 33.8692C47.3051 33.8665 46.8248 33.1754 47.0641 32.5243L55.5821 9.34431Z" fill="url(#paint4_linear_107_37)"/>
<path d="M47.9988 33.8692L47.9911 35.8692L47.9988 33.8692ZM47.0641 32.5243L45.1868 31.8344L47.0641 32.5243ZM56.194 33.901L56.1863 35.901L56.194 33.901ZM27.9349 72.9758L25.9847 72.5323L27.9349 72.9758ZM29.7245 73.7777L31.3535 74.9381L29.7245 73.7777ZM34.222 45.3244L32.2718 44.8809L34.222 45.3244ZM55.5821 9.34431L53.7049 8.65447L55.5821 9.34431ZM32.7016 8.86032L30.7211 8.58217L32.7016 8.86032ZM33.6919 9.99939H54.6435V5.99939H33.6919V9.99939ZM29.8928 43.2417L34.6822 9.13847L30.7211 8.58217L25.9317 42.6854L29.8928 43.2417ZM33.2469 42.1027H28.9025V46.1027H33.2469V42.1027ZM29.8851 73.4192L36.1723 45.7678L32.2718 44.8809L25.9847 72.5323L29.8851 73.4192ZM55.3757 34.3208L28.0955 72.6173L31.3535 74.9381L58.6336 36.6415L55.3757 34.3208ZM47.9911 35.8692L56.1863 35.901L56.2018 31.901L48.0066 31.8692L47.9911 35.8692ZM53.7049 8.65447L45.1868 31.8344L48.9413 33.2141L57.4594 10.0342L53.7049 8.65447ZM48.0066 31.8692C48.7003 31.8719 49.1806 32.5629 48.9413 33.2141L45.1868 31.8344C44.4689 33.7879 45.9098 35.8611 47.9911 35.8692L48.0066 31.8692ZM58.6336 36.6415C60.0452 34.6599 58.6348 31.9104 56.2018 31.901L56.1863 35.901C55.3753 35.8978 54.9051 34.9813 55.3757 34.3208L58.6336 36.6415ZM25.9847 72.5323C25.2579 75.7289 29.4515 77.6081 31.3535 74.9381L28.0955 72.6173C28.7295 71.7273 30.1274 72.3537 29.8851 73.4192L25.9847 72.5323ZM33.2469 46.1027C32.6052 46.1027 32.1295 45.5067 32.2718 44.8809L36.1723 45.7678C36.5991 43.8904 35.1722 42.1027 33.2469 42.1027V46.1027ZM25.9317 42.6854C25.6782 44.4905 27.0797 46.1027 28.9025 46.1027V42.1027C29.5101 42.1027 29.9773 42.64 29.8928 43.2417L25.9317 42.6854ZM54.6435 9.99939C53.9481 9.99939 53.465 9.30719 53.7049 8.65447L57.4594 10.0342C58.179 8.07599 56.7297 5.99939 54.6435 5.99939V9.99939ZM33.6919 5.99939C32.1962 5.99939 30.9291 7.10106 30.7211 8.58217L34.6822 9.13847C34.6129 9.63216 34.1905 9.99939 33.6919 9.99939V5.99939Z" fill="black" mask="url(#path-4-outside-1_107_37)"/>
</g>
</g>
</g>
<defs>
<filter id="filter0_d_107_37" x="10.0625" y="4.1875" width="66.0625" height="73.9253" filterUnits="userSpaceOnUse" color-interpolation-filters="sRGB">
<feFlood flood-opacity="0" result="BackgroundImageFix"/>
<feColorMatrix in="SourceAlpha" type="matrix" values="0 0 0 0 0 0 0 0 0 0 0 0 0 0 0 0 0 0 127 0" result="hardAlpha"/>
<feOffset/>
<feGaussianBlur stdDeviation="3"/>
<feComposite in2="hardAlpha" operator="out"/>
<feColorMatrix type="matrix" values="0 0 0 0 0 0 0 0 0 0 0 0 0 0 0 0 0 0 0.25 0"/>
<feBlend mode="normal" in2="BackgroundImageFix" result="effect1_dropShadow_107_37"/>
<feBlend mode="normal" in="SourceGraphic" in2="effect1_dropShadow_107_37" result="shape"/>
</filter>
<filter id="filter1_d_107_37" x="19.901" y="-0.000610352" width="45.2944" height="82.212" filterUnits="userSpaceOnUse" color-interpolation-filters="sRGB">
<feFlood flood-opacity="0" result="BackgroundImageFix"/>
<feColorMatrix in="SourceAlpha" type="matrix" values="0 0 0 0 0 0 0 0 0 0 0 0 0 0 0 0 0 0 127 0" result="hardAlpha"/>
<feOffset/>
<feGaussianBlur stdDeviation="3"/>
<feComposite in2="hardAlpha" operator="out"/>
<feColorMatrix type="matrix" values="0 0 0 0 0 0 0 0 0 0 0 0 0 0 0 0 0 0 0.25 0"/>
<feBlend mode="normal" in2="BackgroundImageFix" result="effect1_dropShadow_107_37"/>
<feBlend mode="normal" in="SourceGraphic" in2="effect1_dropShadow_107_37" result="shape"/>
</filter>
<linearGradient id="paint0_linear_107_37" x1="19.5" y1="35.375" x2="68.125" y2="36" gradientUnits="userSpaceOnUse">
<stop stop-color="#C4C4C4"/>
<stop offset="1" stop-color="#D8D8D8"/>
</linearGradient>
<linearGradient id="paint1_linear_107_37" x1="19.5" y1="35.375" x2="68.125" y2="36" gradientUnits="userSpaceOnUse">
<stop stop-color="#C4C4C4"/>
<stop offset="1" stop-color="#D8D8D8"/>
</linearGradient>
<linearGradient id="paint2_linear_107_37" x1="19.5" y1="35.375" x2="68.125" y2="36" gradientUnits="userSpaceOnUse">
<stop stop-color="#C4C4C4"/>
<stop offset="1" stop-color="#D8D8D8"/>
</linearGradient>
<linearGradient id="paint3_linear_107_37" x1="19.5" y1="35.375" x2="68.125" y2="36" gradientUnits="userSpaceOnUse">
<stop stop-color="#C4C4C4"/>
<stop offset="1" stop-color="#D8D8D8"/>
</linearGradient>
<linearGradient id="paint4_linear_107_37" x1="42.5471" y1="7.99939" x2="42.5471" y2="74.2021" gradientUnits="userSpaceOnUse">
<stop stop-color="#FFED00"/>
<stop offset="1" stop-color="#FFC800"/>
</linearGradient>
<clipPath id="clip0_107_37">
<rect width="445" height="80" fill="white"/>
</clipPath>
<clipPath id="clip1_107_37">
<rect width="80" height="80" fill="white" transform="translate(3.125)"/>
</clipPath>
</defs>
</svg>
