<svg width="464" height="80" viewBox="0 0 464 80" fill="none" xmlns="http://www.w3.org/2000/svg">
<g clip-path="url(#clip0_107_37)">
<path d="M87.989 14.888H110.105C116.084 14.888 121.226 15.9773 125.533 18.156C129.89 20.284 133.209 23.3747 135.489 27.428C137.82 31.4813 138.985 36.2947 138.985 41.868C138.985 47.492 137.845 52.356 135.565 56.46C133.285 60.5133 129.966 63.6293 125.609 65.808C121.302 67.936 116.134 69 110.105 69H87.989V14.888ZM109.117 57.6C114.386 57.6 118.313 56.308 120.897 53.724C123.532 51.0893 124.849 47.1373 124.849 41.868C124.849 31.4813 119.605 26.288 109.117 26.288H102.277V57.6H109.117ZM182.324 30.392V69H168.796V63.756C167.681 65.58 166.06 67.024 163.932 68.088C161.804 69.1013 159.473 69.608 156.94 69.608C153.647 69.608 150.708 68.7973 148.124 67.176C145.54 65.5547 143.513 63.2493 142.044 60.26C140.625 57.22 139.916 53.724 139.916 49.772C139.916 45.7693 140.651 42.2227 142.12 39.132C143.589 36.0413 145.616 33.6347 148.2 31.912C150.784 30.1893 153.697 29.328 156.94 29.328C159.473 29.328 161.779 29.8853 163.856 31C165.984 32.064 167.631 33.508 168.796 35.332V30.392H182.324ZM161.196 59.348C163.628 59.348 165.503 58.512 166.82 56.84C168.137 55.168 168.796 52.7613 168.796 49.62C168.796 46.428 168.137 43.996 166.82 42.324C165.503 40.6013 163.628 39.74 161.196 39.74C158.815 39.74 156.94 40.6267 155.572 42.4C154.204 44.1227 153.52 46.58 153.52 49.772C153.52 52.8627 154.179 55.244 155.496 56.916C156.813 58.5373 158.713 59.348 161.196 59.348ZM201.14 69.608C193.439 69.608 187.359 68.0627 182.9 64.972L186.396 55.624C188.473 57.0427 190.829 58.1573 193.464 58.968C196.099 59.728 198.683 60.108 201.216 60.108C202.787 60.108 204.003 59.88 204.864 59.424C205.725 58.968 206.156 58.3347 206.156 57.524C206.156 56.8147 205.827 56.2573 205.168 55.852C204.56 55.396 203.369 54.9907 201.596 54.636L195.364 53.192C191.412 52.3813 188.549 51.1147 186.776 49.392C185.053 47.6187 184.192 45.1867 184.192 42.096C184.192 39.6133 184.927 37.4093 186.396 35.484C187.865 33.5587 189.892 32.064 192.476 31C195.111 29.8853 198.125 29.328 201.52 29.328C204.307 29.328 207.043 29.7333 209.728 30.544C212.413 31.3547 214.921 32.4947 217.252 33.964L213.604 43.084C211.577 41.7667 209.5 40.7533 207.372 40.044C205.244 39.3347 203.243 38.98 201.368 38.98C199.848 38.98 198.657 39.2333 197.796 39.74C196.935 40.196 196.504 40.88 196.504 41.792C196.504 42.3493 196.757 42.8053 197.264 43.16C197.771 43.464 198.733 43.7933 200.152 44.148L206.612 45.592C210.716 46.5547 213.655 47.9733 215.428 49.848C217.252 51.672 218.164 54.18 218.164 57.372C218.164 61.172 216.644 64.1613 213.604 66.34C210.615 68.5187 206.46 69.608 201.14 69.608ZM244.979 29.328C249.539 29.328 252.934 30.7213 255.163 33.508C257.443 36.244 258.583 40.3987 258.583 45.972V69H244.827V46.58C244.827 44.1987 244.422 42.5013 243.611 41.488C242.801 40.424 241.534 39.892 239.811 39.892C237.734 39.892 236.062 40.6013 234.795 42.02C233.529 43.388 232.895 45.212 232.895 47.492V69H219.139V13.064H232.895V35.104C235.885 31.2533 239.913 29.328 244.979 29.328ZM287.085 29.328C290.429 29.328 293.393 30.164 295.977 31.836C298.561 33.4573 300.563 35.788 301.981 38.828C303.451 41.868 304.185 45.364 304.185 49.316C304.185 53.3187 303.451 56.8653 301.981 59.956C300.512 62.996 298.485 65.3773 295.901 67.1C293.317 68.772 290.379 69.608 287.085 69.608C284.501 69.608 282.145 69.1013 280.017 68.088C277.889 67.024 276.293 65.58 275.229 63.756V69H261.625V13.064H275.381V35.028C276.496 33.3053 278.092 31.9373 280.169 30.924C282.247 29.86 284.552 29.328 287.085 29.328ZM282.905 59.348C285.337 59.348 287.187 58.4867 288.453 56.764C289.771 55.0413 290.429 52.5587 290.429 49.316C290.429 46.2253 289.796 43.8693 288.529 42.248C287.263 40.576 285.388 39.74 282.905 39.74C280.423 39.74 278.523 40.576 277.205 42.248C275.888 43.92 275.229 46.3267 275.229 49.468C275.229 52.7107 275.888 55.168 277.205 56.84C278.523 58.512 280.423 59.348 282.905 59.348ZM325.126 69.608C320.819 69.608 317.07 68.7973 313.878 67.176C310.686 65.5547 308.228 63.224 306.506 60.184C304.783 57.144 303.922 53.572 303.922 49.468C303.922 45.364 304.783 41.792 306.506 38.752C308.228 35.712 310.686 33.3813 313.878 31.76C317.07 30.1387 320.819 29.328 325.126 29.328C329.382 29.328 333.08 30.164 336.222 31.836C339.414 33.4573 341.871 35.788 343.594 38.828C345.316 41.8173 346.178 45.364 346.178 49.468C346.178 53.572 345.316 57.144 343.594 60.184C341.871 63.1733 339.414 65.504 336.222 67.176C333.08 68.7973 329.382 69.608 325.126 69.608ZM325.126 59.348C330.091 59.348 332.574 56.0547 332.574 49.468C332.574 46.124 331.94 43.6667 330.674 42.096C329.458 40.4747 327.608 39.664 325.126 39.664C322.592 39.664 320.692 40.4747 319.426 42.096C318.159 43.6667 317.526 46.124 317.526 49.468C317.526 52.8627 318.159 55.3707 319.426 56.992C320.692 58.5627 322.592 59.348 325.126 59.348ZM388.37 30.392V69H374.842V63.756C373.727 65.58 372.106 67.024 369.978 68.088C367.85 69.1013 365.519 69.608 362.986 69.608C359.693 69.608 356.754 68.7973 354.17 67.176C351.586 65.5547 349.559 63.2493 348.09 60.26C346.671 57.22 345.962 53.724 345.962 49.772C345.962 45.7693 346.697 42.2227 348.166 39.132C349.635 36.0413 351.662 33.6347 354.246 31.912C356.83 30.1893 359.743 29.328 362.986 29.328C365.519 29.328 367.825 29.8853 369.902 31C372.03 32.064 373.677 33.508 374.842 35.332V30.392H388.37ZM367.242 59.348C369.674 59.348 371.549 58.512 372.866 56.84C374.183 55.168 374.842 52.7613 374.842 49.62C374.842 46.428 374.183 43.996 372.866 42.324C371.549 40.6013 369.674 39.74 367.242 39.74C364.861 39.74 362.986 40.6267 361.618 42.4C360.25 44.1227 359.566 46.58 359.566 49.772C359.566 52.8627 360.225 55.244 361.542 56.916C362.859 58.5373 364.759 59.348 367.242 59.348ZM416.002 29.48C417.877 29.48 419.321 29.7587 420.334 30.316V42.856C418.155 41.8427 416.053 41.336 414.026 41.336C408.25 41.336 405.362 44.0973 405.362 49.62V69H391.606V41.488C391.606 37.3333 391.403 33.6347 390.998 30.392H403.918L404.754 36.852C405.666 34.4707 407.135 32.6467 409.162 31.38C411.189 30.1133 413.469 29.48 416.002 29.48ZM459.24 13.064V69H445.712V63.756C444.597 65.58 442.976 67.024 440.848 68.088C438.72 69.1013 436.389 69.608 433.856 69.608C430.563 69.608 427.624 68.772 425.04 67.1C422.456 65.3773 420.429 62.996 418.96 59.956C417.541 56.8653 416.832 53.3187 416.832 49.316C416.832 45.364 417.541 41.868 418.96 38.828C420.429 35.788 422.456 33.4573 425.04 31.836C427.624 30.164 430.563 29.328 433.856 29.328C436.288 29.328 438.517 29.8347 440.544 30.848C442.621 31.8613 444.268 33.2293 445.484 34.952V13.064H459.24ZM438.112 59.348C440.544 59.348 442.419 58.512 443.736 56.84C445.053 55.1173 445.712 52.66 445.712 49.468C445.712 46.3773 445.028 43.996 443.66 42.324C442.343 40.6013 440.493 39.74 438.112 39.74C435.629 39.74 433.729 40.576 432.412 42.248C431.095 43.8693 430.436 46.2253 430.436 49.316C430.436 52.508 431.095 54.9907 432.412 56.764C433.78 58.4867 435.68 59.348 438.112 59.348Z" fill="#101828"/>
<g clip-path="url(#clip1_107_37)">
<g filter="url(#filter0_d_107_37)">
<path d="M18.0625 12.1875H68.0625V22.1875H18.0625V12.1875Z" fill="url(#paint0_linear_107_37)"/>
<path d="M18.125 28.1562H68.125V38.1562H18.125V28.1562Z" fill="url(#paint1_linear_107_37)"/>
<path d="M18.125 44.1438H68.125V54.1438H18.125V44.1438Z" fill="url(#paint2_linear_107_37)"/>
<path d="M18.125 60.1128H68.125V70.1128H18.125V60.1128Z" fill="url(#paint3_linear_107_37)"/>
<path d="M18.0625 11.1875C17.5102 11.1875 17.0625 11.6352 17.0625 12.1875V22.1875C17.0625 22.7398 17.5102 23.1875 18.0625 23.1875H68.0625C68.6148 23.1875 69.0625 22.7398 69.0625 22.1875V12.1875C69.0625 11.6352 68.6148 11.1875 68.0625 11.1875H18.0625ZM18.125 27.1562C17.5727 27.1562 17.125 27.604 17.125 28.1562V38.1562C17.125 38.7085 17.5727 39.1562 18.125 39.1562H68.125C68.6773 39.1562 69.125 38.7085 69.125 38.1562V28.1562C69.125 27.604 68.6773 27.1562 68.125 27.1562H18.125ZM18.125 43.1438C17.5727 43.1438 17.125 43.5915 17.125 44.1438V54.1438C17.125 54.6961 17.5727 55.1438 18.125 55.1438H68.125C68.6773 55.1438 69.125 54.6961 69.125 54.1438V44.1438C69.125 43.5915 68.6773 43.1438 68.125 43.1438H18.125ZM18.125 59.1128C17.5727 59.1128 17.125 59.5605 17.125 60.1128V70.1128C17.125 70.6651 17.5727 71.1128 18.125 71.1128H68.125C68.6773 71.1128 69.125 70.6651 69.125 70.1128V60.1128C69.125 59.5605 68.6773 59.1128 68.125 59.1128H18.125Z" stroke="black" stroke-width="2" stroke-linejoin="round"/>
</g>
<g filter="url(#filter1_d_107_37)">
<mask id="path-4-outside-1_107_37" maskUnits="userSpaceOnUse" x="24.9023" y="5.99939" width="35" height="71" fill="black">
<rect fill="white" x="24.9023" y="5.99939" width="35" height="71"/>
<path fill-rule="evenodd" clip-rule="evenodd" d="M55.5821 9.34431C55.822 8.69159 55.3389 7.99939 54.6435 7.99939H33.6919C33.1934 7.99939 32.771 8.36661 32.7016 8.86032L27.9122 42.9636C27.8277 43.5653 28.2949 44.1027 28.9025 44.1027H33.2469C33.8887 44.1027 34.3643 44.6986 34.222 45.3244L27.9349 72.9758C27.6926 74.0413 29.0905 74.6677 29.7245 73.7777L57.0046 35.4812C57.4752 34.8206 57.0051 33.9041 56.194 33.901L47.9988 33.8692C47.3051 33.8665 46.8248 33.1754 47.0641 32.5243L55.5821 9.34431Z"/>
</mask>
<path fill-rule="evenodd" clip-rule="evenodd" d="M55.5821 9.34431C55.822 8.69159 55.3389 7.99939 54.6435 7.99939H33.6919C33.1934 7.99939 32.771 8.36661 32.7016 8.86032L27.9122 42.9636C27.8277 43.5653 28.2949 44.1027 28.9025 44.1027H33.2469C33.8887 44.1027 34.3643 44.6986 34.222 45.3244L27.9349 72.9758C27.6926 74.0413 29.0905 74.6677 29.7245 73.7777L57.0046 35.4812C57.4752 34.8206 57.0051 33.9041 56.194 33.901L47.9988 33.8692C47.3051 33.8665 46.8248 33.1754 47.0641 32.5243L55.5821 9.34431Z" fill="url(#paint4_linear_107_37)"/>
<path d="M47.9988 33.8692L47.9911 35.8692L47.9988 33.8692ZM47.0641 32.5243L45.1868 31.8344L47.0641 32.5243ZM56.194 33.901L56.1863 35.901L56.194 33.901ZM27.9349 72.9758L25.9847 72.5323L27.9349 72.9758ZM29.7245 73.7777L31.3535 74.938L29.7245 73.7777ZM34.222 45.3244L32.2718 44.8809L34.222 45.3244ZM55.5821 9.34431L53.7049 8.65447L55.5821 9.34431ZM32.7016 8.86032L30.7211 8.58217L32.7016 8.86032ZM33.6919 9.99939H54.6435V5.99939H33.6919V9.99939ZM29.8928 43.2417L34.6822 9.13847L30.7211 8.58217L25.9317 42.6854L29.8928 43.2417ZM33.2469 42.1027H28.9025V46.1027H33.2469V42.1027ZM29.8851 73.4192L36.1723 45.7678L32.2718 44.8809L25.9847 72.5323L29.8851 73.4192ZM55.3757 34.3208L28.0955 72.6173L31.3535 74.938L58.6336 36.6415L55.3757 34.3208ZM47.9911 35.8692L56.1863 35.901L56.2018 31.901L48.0066 31.8692L47.9911 35.8692ZM53.7049 8.65447L45.1868 31.8344L48.9413 33.2141L57.4594 10.0342L53.7049 8.65447ZM48.0066 31.8692C48.7003 31.8719 49.1806 32.5629 48.9413 33.2141L45.1868 31.8344C44.4689 33.7879 45.9098 35.8611 47.9911 35.8692L48.0066 31.8692ZM58.6336 36.6415C60.0452 34.6599 58.6348 31.9104 56.2018 31.901L56.1863 35.901C55.3753 35.8978 54.9051 34.9813 55.3757 34.3208L58.6336 36.6415ZM25.9847 72.5323C25.2579 75.729 29.4515 77.6081 31.3535 74.938L28.0955 72.6173C28.7295 71.7273 30.1274 72.3537 29.8851 73.4192L25.9847 72.5323ZM33.2469 46.1027C32.6052 46.1027 32.1295 45.5067 32.2718 44.8809L36.1723 45.7678C36.5991 43.8904 35.1722 42.1027 33.2469 42.1027V46.1027ZM25.9317 42.6854C25.6782 44.4905 27.0797 46.1027 28.9025 46.1027V42.1027C29.5101 42.1027 29.9773 42.64 29.8928 43.2417L25.9317 42.6854ZM54.6435 9.99939C53.9481 9.99939 53.465 9.30719 53.7049 8.65447L57.4594 10.0342C58.179 8.07599 56.7297 5.99939 54.6435 5.99939V9.99939ZM33.6919 5.99939C32.1962 5.99939 30.9291 7.10106 30.7211 8.58217L34.6822 9.13847C34.6129 9.63216 34.1905 9.99939 33.6919 9.99939V5.99939Z" fill="black" mask="url(#path-4-outside-1_107_37)"/>
</g>
</g>
</g>
<defs>
<filter id="filter0_d_107_37" x="10.0625" y="4.1875" width="66.0625" height="73.9253" filterUnits="userSpaceOnUse" color-interpolation-filters="sRGB">
<feFlood flood-opacity="0" result="BackgroundImageFix"/>
<feColorMatrix in="SourceAlpha" type="matrix" values="0 0 0 0 0 0 0 0 0 0 0 0 0 0 0 0 0 0 127 0" result="hardAlpha"/>
<feOffset/>
<feGaussianBlur stdDeviation="3"/>
<feComposite in2="hardAlpha" operator="out"/>
<feColorMatrix type="matrix" values="0 0 0 0 0 0 0 0 0 0 0 0 0 0 0 0 0 0 0.25 0"/>
<feBlend mode="normal" in2="BackgroundImageFix" result="effect1_dropShadow_107_37"/>
<feBlend mode="normal" in="SourceGraphic" in2="effect1_dropShadow_107_37" result="shape"/>
</filter>
<filter id="filter1_d_107_37" x="19.901" y="-0.000610352" width="45.2944" height="82.212" filterUnits="userSpaceOnUse" color-interpolation-filters="sRGB">
<feFlood flood-opacity="0" result="BackgroundImageFix"/>
<feColorMatrix in="SourceAlpha" type="matrix" values="0 0 0 0 0 0 0 0 0 0 0 0 0 0 0 0 0 0 127 0" result="hardAlpha"/>
<feOffset/>
<feGaussianBlur stdDeviation="3"/>
<feComposite in2="hardAlpha" operator="out"/>
<feColorMatrix type="matrix" values="0 0 0 0 0 0 0 0 0 0 0 0 0 0 0 0 0 0 0.25 0"/>
<feBlend mode="normal" in2="BackgroundImageFix" result="effect1_dropShadow_107_37"/>
<feBlend mode="normal" in="SourceGraphic" in2="effect1_dropShadow_107_37" result="shape"/>
</filter>
<linearGradient id="paint0_linear_107_37" x1="19.5" y1="35.375" x2="68.125" y2="36" gradientUnits="userSpaceOnUse">
<stop stop-color="#C4C4C4"/>
<stop offset="1" stop-color="#D8D8D8"/>
</linearGradient>
<linearGradient id="paint1_linear_107_37" x1="19.5" y1="35.375" x2="68.125" y2="36" gradientUnits="userSpaceOnUse">
<stop stop-color="#C4C4C4"/>
<stop offset="1" stop-color="#D8D8D8"/>
</linearGradient>
<linearGradient id="paint2_linear_107_37" x1="19.5" y1="35.375" x2="68.125" y2="36" gradientUnits="userSpaceOnUse">
<stop stop-color="#C4C4C4"/>
<stop offset="1" stop-color="#D8D8D8"/>
</linearGradient>
<linearGradient id="paint3_linear_107_37" x1="19.5" y1="35.375" x2="68.125" y2="36" gradientUnits="userSpaceOnUse">
<stop stop-color="#C4C4C4"/>
<stop offset="1" stop-color="#D8D8D8"/>
</linearGradient>
<linearGradient id="paint4_linear_107_37" x1="42.5471" y1="7.99939" x2="42.5471" y2="74.2021" gradientUnits="userSpaceOnUse">
<stop stop-color="#FFED00"/>
<stop offset="1" stop-color="#FFC800"/>
</linearGradient>
<clipPath id="clip0_107_37">
<rect width="464" height="80" fill="white"/>
</clipPath>
<clipPath id="clip1_107_37">
<rect width="80" height="80" fill="white" transform="translate(3.125)"/>
</clipPath>
</defs>
</svg>
